 <svg
      xmlns:mydata="http://www.w3.org/2000/svg"
      mydata:contrastcolor="002d2b"
      mydata:template="Contrast"
      mydata:presentation="2.5"
      mydata:id1="470"
      mydata:id2="238"
      mydata:companyname="Ibrahim Ghaybour"
      mydata:companytagline="Frontend"
      version="1.1"
      xmlns="http://www.w3.org/2000/svg"
      xmlns:xlink="http://www.w3.org/1999/xlink"
      viewBox="0 0 550 470"
      style="
        background-color: rgb(0, 45, 43);
        background-image: radial-gradient(
          circle closest-side,
          rgba(255, 255, 255, 0.07) 0%,
          rgba(255, 255, 255, 0) 100%
        );
      "
    >
      <defs style="animation-play-state: running">
        <g
          style="mix-blend-mode: normal; animation-play-state: running"
          id="interstellar-group"
        >
          <g
            data-paper-data='{"isGlobalGroup":true,"bounds":{"x":65,"y":115.35212829497368,"width":420,"height":239.29574341005264}}'
            style="animation-play-state: running"
          >
            <g
              data-paper-data='{"isSecondaryText":true}'
              fill-rule="nonzero"
              style="animation-play-state: running"
            >
              <path
                d="M134.53616,343.76931h12.84909v-1.37802h-14.30498v11.85028h1.45589v-5.33263h12.37508v-1.2866h-12.37508z"
                data-paper-data='{"glyphName":"F","glyphIndex":0,"firstGlyphOfWord":true,"word":1}'
                style="animation-play-state: running"
              ></path>
              <path
                d="M181.37766,354.24158h2.12966l-5.01826,-3.91025c3.50294,-0.31522 4.93361,-1.40917 4.93361,-3.87707c0,-2.69171 -1.70983,-4.06295 -7.80426,-4.06295h-6.6023v11.85028h1.45589v-3.80902h5.38341l0.5827,-0.00389zM170.47184,349.18032v-5.53662l4.65564,-0.00474c5.06176,-0.00677 6.83914,0.51295 6.83914,2.81529c0,2.35313 -1.70966,2.73758 -6.83914,2.73081z"
                data-paper-data='{"glyphName":"R","glyphIndex":1,"word":1}'
                style="animation-play-state: running"
              ></path>
              <path
                d="M215.27526,342.13736c-6.43301,0 -9.32786,2.91178 -9.32786,6.17908c0,3.92752 3.48737,6.17908 9.32786,6.17908c5.77278,0 9.32786,-2.2177 9.32786,-6.17908c0,-3.26729 -2.89485,-6.17908 -9.32786,-6.17908zM215.27526,343.51538c5.26152,0 7.83811,1.8588 7.83811,4.80106c0,2.97273 -2.67816,4.80106 -7.83811,4.80106c-5.15995,0 -7.83811,-1.82833 -7.83811,-4.80106c0,-2.94226 2.57659,-4.80106 7.83811,-4.80106z"
                data-paper-data='{"glyphName":"O","glyphIndex":2,"word":1}'
                style="animation-play-state: running"
              ></path>
              <path
                d="M264.6948,354.64787v-12.25658h-1.45589v9.69556l-14.69435,-10.10186v12.25658h1.45589v-9.67305z"
                data-paper-data='{"glyphName":"N","glyphIndex":3,"word":1}'
                style="animation-play-state: running"
              ></path>
              <path
                d="M302.72061,343.7016v-1.3103h-15.89631v1.3103h7.2219v10.53998h1.45589v-10.53998z"
                data-paper-data='{"glyphName":"T","glyphIndex":4,"word":1}'
                style="animation-play-state: running"
              ></path>
              <path
                d="M325.6296,343.73546h12.89988v-1.34416h-14.35577v11.85028h14.35577v-1.34416h-12.89988v-4.1002h12.42587v-1.24259h-12.42587z"
                data-paper-data='{"glyphName":"E","glyphIndex":5,"word":1}'
                style="animation-play-state: running"
              ></path>
              <path
                d="M376.83113,354.64787v-12.25658h-1.45589v9.69556l-14.69435,-10.10186v12.25658h1.45589v-9.67305z"
                data-paper-data='{"glyphName":"N","glyphIndex":6,"word":1}'
                style="animation-play-state: running"
              ></path>
              <path
                d="M400.70177,342.3913v11.85028h7.1271c5.90821,0 9.09086,-1.9299 9.09086,-5.90821c0,-3.33501 -2.55627,-5.94207 -9.09086,-5.94207zM402.15766,352.86356v-9.09424h5.40034c5.28523,0 7.90583,1.53377 7.90583,4.56405c0,3.31808 -2.89485,4.53019 -7.90583,4.53019z"
                data-paper-data='{"glyphName":"D","glyphIndex":7,"lastGlyphOfWord":true,"word":1}'
                style="animation-play-state: running"
              ></path>
            </g>
            <g
              data-paper-data='{"isPrimaryText":true}'
              fill-rule="nonzero"
              style="animation-play-state: running"
            >
              <path
                d="M65,298.48286h7.63721v31.81431h-7.63721z"
                data-paper-data='{"glyphName":"I","glyphIndex":0,"firstGlyphOfWord":true,"word":1}'
                style="animation-play-state: running"
              ></path>
              <path
                d="M74.19129,298.48286h23.42226c2.76775,0 5.15808,1.23587 7.17098,3.7076c1.27287,1.8057 1.9093,3.678 1.9093,5.6169v1.06566c0,1.58368 -0.45882,3.18217 -1.37647,4.79546c1.64289,1.98331 2.46433,4.21083 2.46433,6.68256c0,2.93056 -1.02866,5.42449 -3.08597,7.4818c-1.7909,1.64289 -3.94441,2.46433 -6.46055,2.46433h-24.04389zM81.89511,306.12007v4.46244h15.03021c1.43568,0 2.15352,-0.79924 2.15352,-2.39773c0,-1.37647 -0.66604,-2.06471 -1.99811,-2.06471zM81.89511,318.19751v4.46244h15.78505c1.18406,0 1.9315,-0.35522 2.24232,-1.06566c0.10361,-0.45882 0.15541,-0.79184 0.15541,-0.99905v-0.31082c0,-1.39127 -0.64383,-2.08691 -1.9315,-2.08691z"
                data-paper-data='{"glyphName":"B","glyphIndex":1,"word":1}'
                style="animation-play-state: running"
              ></path>
              <path
                d="M109.35798,298.43845h25.53137v11.50022c0,3.52259 -1.36167,6.45315 -4.08502,8.79167h-0.0666v0.0666c2.76775,3.07857 4.15162,6.80837 4.15162,11.1894v0.31082h-7.63721c0,-4.61785 -2.20532,-7.5262 -6.61595,-8.72507c-1.48008,-0.29602 -2.69374,-0.44402 -3.641,-0.44402v9.16909h-7.63721zM116.99519,306.07566v7.32639h6.94897c1.67249,0 2.75295,-0.90285 3.24137,-2.70855c0.0444,-0.59203 0.0666,-1.02866 0.0666,-1.30987v-3.30798z"
                data-paper-data='{"glyphName":"R","glyphIndex":2,"word":1}'
                style="animation-play-state: running"
              ></path>
              <path
                d="M146.90019,298.57166h9.83513c0.13321,0 0.79184,1.8575 1.97591,5.5725c0.20721,0.39962 3.23397,9.11729 9.08029,26.153h-8.08123l-2.28672,-6.54935h-10.98959c-0.0888,0.0148 -0.49583,1.08046 -1.22107,3.19697c-0.71044,2.23492 -1.11746,3.35238 -1.22107,3.35238h-8.01463c6.92677,-20.01067 10.56777,-30.58584 10.92299,-31.7255zM151.85106,307.80736c-1.8797,5.40229 -2.81955,8.17004 -2.81955,8.30325h5.72791v-0.0666l-2.84175,-8.23664z"
                data-paper-data='{"glyphName":"A","glyphIndex":3,"word":1}'
                style="animation-play-state: running"
              ></path>
              <path
                d="M168.90157,298.46066h7.72601v13.76474h10.63437v-13.76474h7.65941v31.83651h-7.65941v-10.41236h-10.63437v10.41236h-7.72601z"
                data-paper-data='{"glyphName":"H","glyphIndex":4,"word":1}'
                style="animation-play-state: running"
              ></path>
              <path
                d="M196.45325,298.48286h7.63721v31.81431h-7.63721z"
                data-paper-data='{"glyphName":"I","glyphIndex":5,"word":1}'
                style="animation-play-state: running"
              ></path>
              <path
                d="M205.66675,298.46066h7.97023c0,0.13321 2.64934,7.12658 7.94803,20.98013v0.0666h0.0666c0,-0.0888 2.67894,-7.10438 8.03683,-21.04673h7.97023v31.83651h-7.72601v-10.85638h-0.0888l-4.04062,10.85638h-8.34765l-4.06282,-10.85638h-0.0666v10.85638h-7.65941z"
                data-paper-data='{"glyphName":"M","glyphIndex":6,"lastGlyphOfWord":true,"word":1}'
                style="animation-play-state: running"
              ></path>
              <path
                d="M266.35669,297.4616c4.77073,0 8.84822,2.04992 12.23246,6.14977c0.99887,1.29704 1.83375,2.75063 2.50464,4.36075c0.23854,0.71561 0.35781,1.11814 0.35781,1.20759h-8.78859c-1.77412,-2.38537 -3.92095,-3.57805 -6.44049,-3.57805c-2.72826,0 -4.96454,1.49831 -6.70884,4.49493c-0.62616,1.44613 -0.93924,2.73572 -0.93924,3.86877v0.84979c0,2.50464 1.09578,4.77073 3.28733,6.7983c1.50576,1.0436 3.00407,1.5654 4.49493,1.5654c2.41518,0 4.48747,-1.19268 6.21686,-3.57805v-0.06709h-7.08901v-7.84935h15.96705v7.84935c-0.55162,2.11701 -1.69957,4.24148 -3.44387,6.3734c-3.39915,3.56314 -7.11137,5.34471 -11.13668,5.34471h-1.1405c-3.26497,0 -6.4554,-1.28213 -9.57128,-3.8464c-3.81659,-3.65259 -5.72488,-7.89407 -5.72488,-12.72444v-0.49198c0,-5.27762 2.16919,-9.78 6.50758,-13.50714c2.9668,-2.14683 6.10505,-3.22025 9.41474,-3.22025zM251.73141,314.54679c0,4.39802 1.68467,8.27424 5.054,11.62866c2.87735,2.53445 5.97833,3.80168 9.30293,3.80168h0.49198c3.86131,0 7.34246,-1.64739 10.44343,-4.94218c1.68467,-2.07229 2.72826,-4.02531 3.13079,-5.85906v-6.14977h-13.37296v5.14345h7.08901v1.87848c-1.95302,2.95189 -4.48002,4.42784 -7.58099,4.42784c-3.56314,0 -6.29886,-1.93066 -8.20715,-5.79197c-0.56652,-1.50576 -0.84979,-2.93698 -0.84979,-4.29366c0,-3.63768 1.52067,-6.56721 4.56201,-8.78859c1.46104,-0.84979 2.89226,-1.27468 4.29366,-1.27468h0.49198c2.445,0 4.68128,1.16287 6.70884,3.4886h6.30631c-0.58143,-1.52067 -1.79648,-3.25752 -3.64514,-5.21054c-2.98171,-2.57918 -6.17959,-3.86877 -9.59365,-3.86877c-4.24893,0 -7.96116,1.83375 -11.13668,5.50125c-2.32573,3.05625 -3.4886,6.49267 -3.4886,10.30926z"
                data-paper-data='{"glyphName":"G","glyphIndex":7,"firstGlyphOfWord":true,"fontStyleEffect":true,"word":2}'
                style="animation-play-state: running"
              ></path>
              <path
                d="M301.32432,298.46066h7.62032v31.76986h-7.62032v-10.21967c0,-0.10368 -0.05184,-0.15552 -0.15552,-0.15552h-10.48627v10.44184h-7.70919v-31.76986h7.70919v13.70769h10.64179zM302.56845,299.70479v13.79656h-13.21893v-13.70769h-5.04319v29.23716h5.04319v-10.41962h13.21893v10.35297h5.10984v-29.10386c0,-0.10368 -0.04443,-0.15552 -0.1333,-0.15552z"
                data-paper-data='{"glyphName":"H","glyphIndex":8,"fontStyleEffect":true,"word":2}'
                style="animation-play-state: running"
              ></path>
              <path
                d="M330.93069,298.57166l10.9734,31.7255h-8.11943c-1.48967,-4.29201 -2.2345,-6.48227 -2.2345,-6.57076h-11.17251l-2.2345,6.57076h-8.11943l10.9734,-31.7255zM321.90418,299.83272l-10.0442,29.20339h5.37608c0,-0.0885 0.74483,-2.27875 2.2345,-6.57076h12.98666c1.48967,4.29201 2.2345,6.48227 2.2345,6.57076h5.3982l-10.06632,-29.20339zM325.88646,303.815h0.15487l4.60175,13.56188h-9.35836v-0.06637zM325.88646,307.73091l-2.7876,8.31854v0.06637h5.73006c-0.04425,-0.32448 -0.99557,-3.11945 -2.85397,-8.38491z"
                data-paper-data='{"glyphName":"A","glyphIndex":9,"fontStyleEffect":true,"word":2}'
                style="animation-play-state: running"
              ></path>
              <path
                d="M333.24711,298.43845h8.97554l5.10983,8.64229h0.15552l5.10983,-8.64229h8.99775v0.08887c-5.67266,9.36062 -9.11624,15.08512 -10.33075,17.17349v14.59635h-7.70919v-14.50749c0,-0.20736 -1.26635,-2.34016 -3.79905,-6.3984zM335.491,299.7048c6.1318,10.19005 9.26435,15.43318 9.39765,15.7294v13.61882h5.04318v-13.55217c0.04443,-0.25179 1.17008,-2.16983 3.37693,-5.75412l6.04294,-10.04194h-5.90963c-3.39175,5.49492 -5.37643,8.7978 -5.95407,9.90864h-0.15552c-0.57763,-1.11083 -2.56232,-4.41371 -5.95407,-9.90864z"
                data-paper-data='{"glyphName":"Y","glyphIndex":10,"fontStyleEffect":true,"word":2}'
                style="animation-play-state: running"
              ></path>
              <path
                d="M362.77405,298.48286h22.56287c4.02301,0 6.9885,1.81923 8.89647,5.45768c0.68036,1.40509 1.02054,2.9507 1.02054,4.63681c0,1.8636 -0.42153,3.5645 -1.26459,5.10271c1.50863,1.89318 2.26294,4.06738 2.26294,6.5226c0,3.35744 -1.32375,6.10847 -3.97124,8.25308c-1.71569,1.22761 -3.59408,1.84141 -5.63517,1.84141h-23.87182zM364.01645,299.72526v29.37388h21.07642c2.92851,0 4.98439,-0.48809 6.16763,-1.46426c1.56779,-0.90222 2.71405,-2.60312 3.43878,-5.10271c0.20707,-0.75431 0.3106,-1.5456 0.3106,-2.37387c0,-2.36648 -0.83566,-4.48891 -2.50699,-6.3673c0.99096,-1.65653 1.48644,-3.29828 1.48644,-4.92523v-0.59901c0,-2.88414 -1.28677,-5.29499 -3.86031,-7.23254c-1.50863,-0.87264 -3.00986,-1.30896 -4.5037,-1.30896zM370.13971,305.84851h15.3747c1.18324,0 1.95234,0.6138 2.30731,1.84141l0.06656,0.70994v0.17749c0,1.53821 -0.63599,2.44782 -1.90797,2.72884h-15.8406zM371.38211,307.09091v3.01726h13.99918c0.6212,0 0.99836,-0.23665 1.13147,-0.70994c0.08874,-0.25144 0.13311,-0.42892 0.13311,-0.53246v-0.4659c0,-0.87264 -0.34018,-1.30896 -1.02054,-1.30896zM370.13971,317.47382h16.50617c1.10929,0 1.81923,0.63599 2.12983,1.90797c0.02958,0.04437 0.06656,0.318 0.11093,0.82087c0,1.3903 -0.56943,2.28513 -1.7083,2.68447c-0.22186,0.02958 -0.39934,0.04437 -0.53246,0.04437h-16.50617zM371.38211,318.67185v3.08381h14.77568c0.99096,0 1.48644,-0.49548 1.48644,-1.48644v-0.11093c0,-0.99096 -0.49548,-1.48644 -1.48644,-1.48644z"
                data-paper-data='{"glyphName":"B","glyphIndex":11,"fontStyleEffect":true,"word":2}'
                style="animation-play-state: running"
              ></path>
              <path
                d="M413.82537,297.55041c4.1012,0 7.7789,1.61225 11.03311,4.83674c3.19477,3.49196 4.79216,7.36284 4.79216,11.61263v1.13674c0,3.69999 -1.38193,7.28854 -4.14578,10.76564c-3.34337,3.61084 -7.19195,5.41626 -11.54576,5.41626h-0.49036c-4.90361,0 -9.13111,-2.37751 -12.68251,-7.13252c-1.94658,-3.09076 -2.91987,-6.36726 -2.91987,-9.8295c0,-4.33895 1.51566,-8.2544 4.54698,-11.74636c3.28393,-3.37309 7.08794,-5.05963 11.41203,-5.05963zM399.20371,313.93291v1.00301c0,3.65542 1.40421,7.14738 4.21264,10.47588c3.04618,3.09076 6.53814,4.63614 10.47588,4.63614c4.27951,0 7.98693,-1.87972 11.12227,-5.63915c2.22891,-3.0016 3.34337,-6.25581 3.34337,-9.76263v-0.35663c0,-4.24979 -1.58996,-8.02408 -4.76987,-11.32287c-2.98674,-2.71927 -6.09979,-4.07891 -9.33914,-4.07891h-1.00301c-3.58112,0 -6.9542,1.61968 -10.11926,4.85903c-2.61526,3.23935 -3.92288,6.63473 -3.92288,10.18613zM413.75851,304.37088c2.97188,0 5.43854,1.40421 7.39999,4.21264c1.14417,1.75341 1.71626,3.72971 1.71626,5.9289c0,2.43694 -0.71325,4.56927 -2.13976,6.39698c-1.9763,2.37751 -4.33152,3.56626 -7.06565,3.56626c-3.01646,0 -5.53513,-1.51566 -7.55601,-4.54698c-0.951,-1.73855 -1.4265,-3.49939 -1.4265,-5.28252v-0.35663c0,-2.39237 0.71325,-4.50983 2.13976,-6.3524c2.08032,-2.37751 4.39096,-3.56626 6.93192,-3.56626zM405.97961,314.57929c0,3.0759 1.3745,5.61686 4.12349,7.62288c1.33735,0.66867 2.55582,1.00301 3.65542,1.00301c2.40722,0 4.51726,-1.21104 6.33011,-3.63313c0.99558,-1.58996 1.49337,-3.30622 1.49337,-5.14879c0,-3.0759 -1.32992,-5.61686 -3.98975,-7.62288c-1.30763,-0.71325 -2.49638,-1.06988 -3.56626,-1.06988h-0.42349c-1.9763,0 -3.78172,0.90642 -5.41626,2.71927c-1.47108,1.61968 -2.20662,3.66284 -2.20662,6.12951z"
                data-paper-data='{"glyphName":"O","glyphIndex":12,"fontStyleEffect":true,"word":2}'
                style="animation-play-state: running"
              ></path>
              <path
                d="M431.14069,298.48286h7.62214v21.10059c0,1.99681 1.34859,3.31559 4.04577,3.95636c0.73018,0.14902 1.30389,0.22352 1.72113,0.22352c1.75838,0 3.33795,-0.58116 4.73869,-1.74348c0.59606,-0.81959 0.89409,-1.58701 0.89409,-2.30229v-21.23471h7.64449v20.40767c0,5.8116 -2.80149,9.70091 -8.40447,11.66791c-1.53486,0.50665 -3.10697,0.75998 -4.71634,0.75998h-0.42469c-4.20224,0 -7.69665,-1.50506 -10.48324,-4.51517c-1.75838,-1.8925 -2.63757,-4.66418 -2.63757,-8.31506zM432.45948,299.73459v19.98298c0,3.71049 1.78074,6.60884 5.34221,8.69505c2.08622,1.10271 4.3289,1.65407 6.72805,1.65407c3.94891,0 7.21235,-1.4082 9.79032,-4.22459c1.11762,-1.57956 1.67642,-2.64502 1.67642,-3.19638c0.37254,-0.78978 0.55881,-2.29484 0.55881,-4.51517v-18.26185c0,-0.08941 -0.0447,-0.13411 -0.13411,-0.13411h-4.93986v19.15594c0,2.63757 -1.04311,4.3736 -3.12933,5.20809c-1.08781,0.61096 -2.38425,0.91645 -3.8893,0.91645c-2.9356,0 -5.08888,-1.06546 -6.45982,-3.19638c-0.37254,-0.70037 -0.55881,-1.81054 -0.55881,-3.3305v-18.7536z"
                data-paper-data='{"glyphName":"U","glyphIndex":13,"fontStyleEffect":true,"word":2}'
                style="animation-play-state: running"
              ></path>
              <path
                d="M469.15951,298.43845c4.91729,0.04443 10.19745,0.06665 15.84049,0.06665v11.79705c0,3.16958 -1.24413,5.97629 -3.7324,8.42012c2.48827,2.96222 3.7324,6.48727 3.7324,10.57514v0.99975h-8.5312v-0.06665c0,-3.92495 -1.30338,-6.45024 -3.91013,-7.57589c-1.61441,-0.75537 -3.17698,-1.13305 -4.68772,-1.13305v8.77559h-8.62007v-31.79206c3.70278,0 7.00566,-0.02222 9.90864,-0.06665zM460.49501,299.74924v29.30379h6.10959v-8.84224h0.06665c5.16908,0 8.59045,1.76252 10.2641,5.28757c0.47396,1.31819 0.71093,2.50308 0.71093,3.55467h6.10959v-0.11108c0,-3.40656 -1.12564,-6.5317 -3.37693,-9.37544l-0.88867,-0.95532v-0.11108c2.88817,-1.94026 4.33225,-5.0654 4.33225,-9.37544v-9.37544h-0.06665c-4.22117,0 -9.02737,-0.02222 -14.41862,-0.06665c-3.36212,0.04443 -6.30954,0.06665 -8.84224,0.06665zM466.60459,305.79217h11.04169v4.3989c0,1.7329 -0.79239,2.95482 -2.37718,3.66575c-0.50358,0.16292 -1.25154,0.24438 -2.24388,0.24438h-6.42062zM467.87095,307.03631v5.82077h5.79855c1.8662,0 2.7993,-1.0664 2.7993,-3.1992v-2.48827c0,-0.08887 -0.04443,-0.1333 -0.1333,-0.1333z"
                data-paper-data='{"glyphName":"R","glyphIndex":14,"lastGlyphOfWord":true,"fontStyleEffect":true,"word":2}'
                style="animation-play-state: running"
              ></path>
            </g>
            <g
              data-paper-data='{"isIcon":"true","iconType":"icon","rawIconId":"17953","selectedEffects":{"container":"","transformation":"","pattern":""},"isDetailed":false,"iconStyle":"standalone","bounds":{"x":198.0323302113063,"y":115.35212829497368,"width":153.9353395773874,"height":153.93933956022641},"fillRule":"evenodd","suitableAsStandaloneIcon":true}'
              fill-rule="evenodd"
              style="animation-play-state: running"
            >
              <g
                data-paper-data='{"isPathIcon":true}'
                style="animation-play-state: running"
              >
                <path
                  d="M270.49802,115.49113c1.52899,-0.093 3.05299,-0.139 4.57098,-0.139c3.71598,0 7.38397,0.268 10.97695,0.785l-1.94899,13.54094c-2.95599,-0.424 -5.96997,-0.645 -9.02796,-0.645c-1.24599,0 -2.49899,0.035 -3.76598,0.112c-0.671,0.042 -1.33499,0.088 -1.99299,0.148l-1.21799,-13.62694c0.797,-0.068 1.60199,-0.129 2.40599,-0.175zM246.97312,120.62311l4.97398,12.73695v0.006c4.52198,-1.76999 9.30696,-3.03399 14.29794,-3.72498l-1.88099,-13.54994c-6.05997,0.841 -11.88795,2.38299 -17.39093,4.53198zM289.74694,116.76512l-2.60799,13.43194c4.90098,0.948 9.61496,2.47299 14.06094,4.50098l5.67698,-12.44795c-5.41498,-2.46599 -11.16095,-4.32398 -17.12993,-5.48498zM243.50514,122.0761c-5.52498,2.47599 -10.69495,5.58398 -15.41693,9.22296l8.34496,10.83695c3.88698,-2.99399 8.13697,-5.54598 12.67195,-7.58097zM303.97988,136.04904c4.40598,2.26899 8.51896,5.05298 12.25695,8.26496l8.91296,-10.37696c-4.54498,-3.90098 -9.54096,-7.27597 -14.89694,-10.04396l-6.27297,12.15295zM258.81407,135.31704c5.15198,-1.46099 10.58795,-2.23999 16.19093,-2.23999c0.544,0 1.09,0.003 1.62899,0.023l-0.365,13.66994c-0.422,-0.011 -0.84,-0.017 -1.26199,-0.013c-4.33198,0 -8.50396,0.596 -12.46095,1.71999zM279.23698,146.94699l1.25299,-13.61894c6.12697,0.56 11.99095,2.05899 17.43993,4.34998l-5.29698,12.60895c-4.18198,-1.75199 -8.67796,-2.90299 -13.39594,-3.33999zM225.17821,133.65305c-4.57798,3.89598 -8.68696,8.31196 -12.23995,13.15194l11.02595,8.09297c2.92399,-3.98598 6.30797,-7.61597 10.07496,-10.82195zM327.93477,136.45104l-9.40296,9.93096c3.57598,3.39099 6.76197,7.19297 9.47796,11.33895l11.44695,-7.48897c-3.30199,-5.04298 -7.17797,-9.67096 -11.52195,-13.78094zM239.31315,145.033c4.75798,-3.59898 10.08296,-6.49597 15.81293,-8.53596l4.59198,12.88694c-4.40198,1.56399 -8.49296,3.79098 -12.15895,6.56097zM295.33791,151.53097l6.11097,-12.23795c5.41998,2.70199 10.35896,6.21597 14.66794,10.37396l-9.49096,9.84396c-3.31999,-3.20299 -7.12397,-5.90197 -11.28495,-7.97997zM224.63822,161.11193c3.18599,-5.12598 7.12597,-9.72696 11.67095,-13.65394l8.93796,10.35496c-3.49998,3.02499 -6.53597,6.57097 -8.98696,10.51295zM202.68131,165.92591l12.84694,4.69398h0.006c1.70499,-4.66498 3.95098,-9.09096 6.66397,-13.18694l-11.41195,-7.55097c-3.29399,4.97898 -6.02197,10.35396 -8.10497,16.04393zM268.79503,165.31991c1.98899,-0.455 4.06598,-0.695 6.21197,-0.699c2.24099,0.004 4.40898,0.267 6.48497,0.765l3.18999,-13.30194c-3.10999,-0.745 -6.35497,-1.139 -9.67496,-1.139c-3.17399,0 -6.27897,0.361 -9.25996,1.04zM308.70086,161.64493l10.11296,-9.21496c4.02698,4.42098 7.39297,9.45996 9.94896,14.95494l-12.40495,5.76198c-1.96399,-4.21898 -4.55498,-8.09197 -7.65697,-11.50195zM261.80006,153.09997c-6.14197,2.06599 -11.62495,5.52298 -16.08893,9.99696l9.68396,9.66096l-0.003,0.001h0.005l-0.002,-0.001c2.99999,-3.00199 6.67297,-5.31898 10.77095,-6.69497zM288.61394,153.23797l-4.49998,12.91694c4.07798,1.41799 7.73397,3.77198 10.70495,6.80497l9.78296,-9.55696c-4.42398,-4.52098 -9.87396,-8.03997 -15.98793,-10.16496zM341.42872,153.41796l-11.79795,6.92497c2.47399,4.20798 4.47198,8.74196 5.92397,13.52494l13.09094,-3.97798c-1.77099,-5.82498 -4.20598,-11.34095 -7.21697,-16.47193zM216.76125,181.43084c1.12,-6.02697 3.15399,-11.73695 5.94497,-16.96993l12.06695,6.44497c-2.14899,4.02098 -3.70698,8.39896 -4.56398,13.02594zM242.96914,166.13091c-3.98098,4.86698 -6.88897,10.67095 -8.32496,17.02993l13.34294,3.01999c0.958,-4.24498 2.89399,-8.12097 5.56498,-11.38595zM296.63991,175.02187c2.63599,3.28999 4.52898,7.18297 5.44998,11.43995l13.37094,-2.87899c-1.37599,-6.38397 -4.22098,-12.21195 -8.14797,-17.11693l-10.67295,8.55196zM275.005,168.0289c-4.95598,-0.005 -9.61896,1.50099 -13.46794,4.06998l7.59097,11.38095c1.68999,-1.126 3.67598,-1.76899 5.87697,-1.77399c0.912,0 1.78599,0.111 2.61599,0.324l3.35099,-13.26394c-1.90999,-0.482 -3.91898,-0.737 -5.96697,-0.737zM201.47932,169.4879c-1.75799,5.65698 -2.87699,11.58595 -3.27999,17.68792l13.64594,0.897c0.334,-5.01498 1.25299,-9.87996 2.69899,-14.52694zM285.44696,170.38289l-5.87997,12.34695l-0.003,-0.001v0.004l0.003,-0.003c2.67699,1.27499 4.75798,3.67198 5.61498,6.54397l13.10394,-3.92198c-1.99099,-6.62997 -6.69397,-12.03695 -12.83894,-14.96894zM317.51882,175.88087l12.75995,-4.93998c2.12899,5.50198 3.45799,11.40695 3.85498,17.55592l-13.65594,0.871c-0.299,-4.73698 -1.32599,-9.25896 -2.95899,-13.48694zM336.38274,176.83686c0.954,3.79598 1.56399,7.73097 1.80199,11.78695c0.054,0.956 0.091,1.91899 0.102,2.87799l13.68094,-0.187c-0.014,-1.159 -0.056,-2.31799 -0.128,-3.48799c-0.286,-4.91998 -1.03,-9.70396 -2.19099,-14.32294zM257.86607,175.10387c-4.41398,4.37498 -7.16197,10.51095 -7.15797,17.22093c0,0.39 0.007,0.768 0.03,1.153l13.66394,-0.64c-0.011,-0.173 -0.015,-0.345 -0.015,-0.513c0.004,-2.96499 1.18499,-5.58198 3.13099,-7.52597zM215.75925,192.3268c0,-2.39399 0.143,-4.75398 0.418,-7.07997l13.58394,1.61899c-0.216,1.78799 -0.32,3.60998 -0.32,5.46098c0,2.86299 0.26,5.65898 0.765,8.36896l-13.44794,2.49699c-0.661,-3.52498 -0.999,-7.16197 -0.999,-10.86595zM233.94018,187.19582c-0.207,1.68199 -0.315,3.39599 -0.315,5.12898c0,4.78498 0.816,9.40696 2.32099,13.70194l12.91094,-4.52998h-0.001c-1.003,-2.86799 -1.55099,-5.94097 -1.55099,-9.17196c0,-1.17099 0.07,-2.31999 0.211,-3.44699zM302.70488,192.3268c0,4.45898 -1.04,8.62496 -2.89199,12.34295l12.23995,6.10197c2.77499,-5.55098 4.33298,-11.83995 4.33298,-18.44492c0,-1.58999 -0.091,-3.16099 -0.265,-4.70798l-13.58994,1.54099c0.113,1.039 0.174,2.09399 0.174,3.16699zM285.62295,192.3248c0,3.14399 -1.33699,5.91097 -3.49599,7.87597l9.18096,10.14096c4.89598,-4.42198 7.99397,-10.88795 7.99397,-18.01692c0,-0.776 -0.037,-1.54399 -0.11,-2.30899l-13.61694,1.28899c0.029,0.332 0.048,0.677 0.048,1.02zM198.03233,192.2608c0,1.51899 0.047,3.04099 0.133,4.56798c0.243,4.08098 0.794,8.07597 1.63899,11.96295l13.36694,-2.91399c-0.693,-3.19299 -1.155,-6.48097 -1.34899,-9.85196c-0.074,-1.26899 -0.111,-2.51999 -0.111,-3.76498c0,-0.367 0,-0.738 0.01,-1.107l-13.67894,-0.236c-0.007,0.447 -0.01,0.896 -0.01,1.34299zM318.49281,205.99174c1.35199,-4.31198 2.07899,-8.89196 2.07899,-13.66394h13.68294c0,6.17197 -0.946,12.14495 -2.71099,17.75592zM338.26073,194.59079c-0.179,5.02898 -0.944,9.91896 -2.23999,14.60394l13.18294,3.64598c1.57999,-5.70698 2.51299,-11.66295 2.72699,-17.77992zM264.69904,194.88979l-13.27994,3.28599c1.67599,6.75697 6.13597,12.35995 12.10595,15.56793l6.46797,-12.05295c-2.60499,-1.39599 -4.57998,-3.88098 -5.29398,-6.80097zM271.90501,202.48175l-3.98498,13.09294c2.24599,0.68 4.63498,1.048 7.08497,1.047c4.54198,0 8.84396,-1.26399 12.48495,-3.45299l-7.03397,-11.72695h-0.004c-1.59499,0.951 -3.42999,1.49899 -5.44698,1.49899c-1.094,0 -2.12699,-0.162 -3.09999,-0.459zM217.58125,206.96874l13.26094,-3.37099c1.154,4.54798 2.99499,8.81896 5.40298,12.70595h0.004l-11.63095,7.20897c-3.12799,-5.05298 -5.52798,-10.62595 -7.03697,-16.54393zM249.89211,204.03175l-12.39695,5.78998c2.72499,5.82997 6.75797,10.90695 11.72495,14.86894l8.52896,-10.69295c-3.33299,-2.66099 -6.04097,-6.07297 -7.85697,-9.96596zM298.4689,207.05573c-2.27699,3.62298 -5.37998,6.68797 -9.03196,8.92196l7.13397,11.66895c5.45698,-3.33599 10.07396,-7.89297 13.47294,-13.30194l-11.57495,-7.28497zM310.61185,220.76668c2.87399,-3.59098 5.20898,-7.61997 6.89597,-11.97295v0.004l12.75595,4.94598c-2.20199,5.66498 -5.24198,10.90595 -8.97296,15.56793zM213.90226,208.87373l-13.20794,3.55998c1.58599,5.88697 3.84698,11.47795 6.68897,16.69093l12.01295,-6.54297v-0.006c-2.33499,-4.28098 -4.19198,-8.86696 -5.49398,-13.70194zM335.12674,212.15371c-1.56099,4.72298 -3.66598,9.21296 -6.24697,13.38694l11.63495,7.19297c3.13999,-5.07498 5.69698,-10.54095 7.60097,-16.29393zM259.97806,215.6017l-7.43197,11.47995c5.24298,3.39699 11.32795,5.64598 17.85692,6.36697l1.50499,-13.59194c-4.37198,-0.488 -8.41296,-1.98099 -11.92995,-4.25498zM275.038,233.70562c6.40397,0 12.51195,-1.47299 17.93692,-4.09798l-5.94497,-12.31695c-3.63898,1.74999 -7.69297,2.73299 -12.02295,2.73599c-0.12,0 -0.239,0 -0.356,-0.003l-0.171,13.68194zM226.76221,226.72765l11.13795,-7.95297c2.68899,3.77498 5.94597,7.12297 9.64396,9.91396h-0.005l-8.25196,10.90795c-4.79898,-3.62698 -9.02596,-7.97097 -12.52495,-12.86894zM297.9259,231.72463c4.00798,-2.34199 7.63997,-5.28098 10.75095,-8.69496l10.10296,9.21796c-4.04098,4.43798 -8.74896,8.24796 -13.96894,11.29095zM220.93223,225.24766l-11.67395,7.12297c3.14299,5.15098 6.87197,9.89096 11.07995,14.14094l9.71196,-9.63496c-3.46799,-3.49798 -6.53097,-7.39697 -9.11796,-11.62895zM327.19078,228.13264c-2.79999,4.06998 -6.06797,7.80997 -9.73396,11.12995l9.18596,10.13696c4.44698,-4.02898 8.41896,-8.56996 11.82295,-13.52094zM242.44614,241.82759l7.52297,-11.42095c3.82698,2.52299 8.04897,4.47498 12.55295,5.75698l-3.73898,13.15894c-5.87597,-1.66899 -11.36795,-4.21798 -16.33693,-7.49497zM282.16097,237.3366c4.65598,-0.734 9.07396,-2.17199 13.14894,-4.20198l6.10697,12.23795c-5.29998,2.64899 -11.06495,4.52298 -17.13093,5.47698zM262.53605,250.25655l2.86699,-13.37394c3.08899,0.664 6.29997,1.01 9.60196,1.01c1.42099,0 2.82699,-0.063 4.20598,-0.191l1.24499,13.61894c-1.79499,0.169 -3.61398,0.256 -5.45098,0.256c-4.27298,0 -8.44296,-0.458 -12.46895,-1.31999zM232.27618,239.0166l-9.22996,10.09196c4.42098,4.04398 9.30996,7.57697 14.56894,10.50795l6.65597,-11.95295v-0.007c-4.32898,-2.40299 -8.35396,-5.30898 -11.99495,-8.63996zM315.12383,241.27759c-3.79598,3.11399 -7.96497,5.80098 -12.43295,7.97097l5.99197,12.30295c5.44298,-2.65099 10.51095,-5.91297 15.11994,-9.70396l-8.67896,-10.57295zM247.00712,249.09755l-6.06497,12.26495c5.34098,2.63699 11.01895,4.67498 16.94493,6.02297l3.03599,-13.33994c-4.86798,-1.108 -9.52696,-2.77699 -13.91594,-4.94798zM299.89089,250.53255l0.005,0.002c-4.47198,1.90699 -9.21196,3.32199 -14.16594,4.16798l2.30499,13.48494c6.02197,-1.026 11.79795,-2.74899 17.24093,-5.08098l-5.37998,-12.57195c0,-0.002 0.003,-0.002 0.003,-0.002z"
                  style="animation-play-state: running"
                ></path>
                <path
                  d="M274.938,269.29147c-4.54598,0 -9.01796,-0.399 -13.36794,-1.16699l2.37599,-13.46794c3.56998,0.627 7.24297,0.954 10.99195,0.954c1.24799,0 2.50599,-0.03 3.76298,-0.106c1.34099,-0.078 2.66399,-0.197 3.97198,-0.357l1.64699,13.58494c-1.59099,0.19 -3.19699,0.333 -4.81998,0.431c-1.53099,0.09 -3.05399,0.128 -4.56198,0.128z"
                  style="animation-play-state: running"
                ></path>
              </g>
            </g>
          </g>
        </g>
      </defs>
      <style style="animation-play-state: running">
        .strokeItem {
          fill: none;
          stroke-width: 2;
          stroke-linejoin: round;
          stroke-dasharray: 70 90;
          stroke-dashoffset: 0;
          animation: stroke 6000ms infinite linear;
        }

        @keyframes stroke {
          100% {
            stroke-dashoffset: -160;
          }
        }
      </style>
      <defs style="animation-play-state: running">
        <linearGradient
          x1="65"
          y1="235"
          x2="485"
          y2="235"
          gradientUnits="userSpaceOnUse"
          id="color-15777399652"
          style="animation-play-state: running"
        >
          <stop
            offset="0"
            stop-color="#00968f"
            style="animation-play-state: running"
          ></stop>
          <stop
            offset="1"
            stop-color="#00fff4"
            style="animation-play-state: running"
          ></stop>
        </linearGradient>
      </defs>
      <use
        href="#interstellar-group"
        class="strokeItem"
        style="
          stroke: rgb(0, 150, 143);
          animation-delay: 0ms;
          animation-play-state: running;
        "
      ></use>
      <use
        href="#interstellar-group"
        class="strokeItem"
        style="
          stroke: rgb(0, 255, 244);
          animation-delay: -3000ms;
          animation-play-state: running;
        "
      ></use>
    </svg> 