<svg xmlns:mydata="http://www.w3.org/2000/svg" mydata:contrastcolor="271d3b" mydata:template="Contrast" mydata:presentation="2.5" mydata:layouttype="undefined" mydata:specialfontid="undefined" mydata:id1="887" mydata:id2="931" mydata:companyname="Ibrahim Ghaybour" mydata:companytagline="Front~End" version="1.1"
    xmlns="http://www.w3.org/2000/svg"
    xmlns:xlink="http://www.w3.org/1999/xlink" viewBox="0 35 550 400">
    <defs>
        <linearGradient x1="65" y1="235" x2="485" y2="235" gradientUnits="userSpaceOnUse" id="color-1402434227">
            <stop offset="0" stop-color="#00a884"></stop>
            <stop offset="1" stop-color="#8360c3"></stop>
        </linearGradient>
    </defs>
    <g fill="url(#color-1402434227)" fill-rule="nonzero" stroke="none" stroke-width="1" stroke-linecap="butt" stroke-linejoin="miter" stroke-miterlimit="10" stroke-dasharray="" stroke-dashoffset="0" font-family="none" font-weight="none" font-size="none" text-anchor="none" style="mix-blend-mode: normal">
        <g data-paper-data="{&quot;isGlobalGroup&quot;:true,&quot;bounds&quot;:{&quot;x&quot;:64.99999999999999,&quot;y&quot;:135.71887130750756,&quot;width&quot;:420,&quot;height&quot;:198.56225738498486}}">
            <g data-paper-data="{&quot;isSecondaryText&quot;:true}">
                <path d="M225.92386,301.39808c0,-0.12633 -0.02527,-0.20213 -0.15159,-0.20213h-9.07036c-0.10106,0 -0.10106,0.25266 0,0.25266c1.33908,0 1.59173,0.25266 1.617,1.49067v9.90413c0,1.23802 -0.20213,1.49067 -1.617,1.49067c-0.0758,0 -0.0758,0.25266 0,0.25266c0.65691,0 1.51594,-0.05053 2.4255,-0.05053c1.51594,0 2.62763,0.05053 3.36033,0.05053c0.0758,0 0.0758,-0.25266 0,-0.25266c-2.17284,0 -2.47603,-0.30319 -2.5013,-1.56647v-3.84038h2.67816c1.31381,0 1.94545,0.55584 1.94545,1.81913c0,0.05053 0.0758,0.10106 0.12633,0.10106c0.0758,0 0.12633,-0.05053 0.12633,-0.10106c0,-0.75797 -0.05053,-1.36434 -0.05053,-2.04652c0,-0.53058 0.02527,-0.93483 0,-1.79386c0.02527,-0.0758 -0.05053,-0.10106 -0.12633,-0.10106c-0.05053,0 -0.12633,0.02527 -0.12633,0.10106c0,1.11169 -0.50531,1.5412 -1.81913,1.5412h-2.75395v-5.50791c0.02527,-1.13695 0.17686,-1.38961 1.617,-1.38961h1.44014c1.41488,0 2.47603,1.03589 2.67816,2.55183c0.02527,0.05053 0.0758,0.0758 0.27792,0c0,-0.63164 -0.02527,-1.92019 -0.0758,-2.70342z" data-paper-data="{&quot;glyphName&quot;:&quot;F&quot;,&quot;glyphIndex&quot;:0,&quot;firstGlyphOfWord&quot;:true,&quot;word&quot;:1}"></path>
                <path d="M254.64847,314.30882c-1.64227,0 -3.08241,-0.65691 -6.26588,-5.53317c1.66753,-0.53058 3.234,-1.79386 3.234,-4.01724c0,-2.40023 -2.17284,-3.48666 -4.72467,-3.48666c-0.93483,0 -1.89492,0.12633 -2.82975,0.12633c-0.90956,0 -1.74333,-0.0758 -2.37497,-0.0758c-0.10106,0 -0.0758,0.27792 0,0.27792c1.33908,0 1.617,0.25266 1.617,1.44014v9.82833c0,1.21275 -0.25266,1.44014 -1.617,1.44014c-0.10106,0 -0.0758,0.27792 0,0.27792c0.63164,0 1.49067,-0.05053 2.40023,-0.05053c0.98536,0 1.81913,0.05053 2.47603,0.05053c0.0758,0 0.0758,-0.27792 0,-0.27792c-1.36434,0 -1.59173,-0.22739 -1.59173,-1.44014v-4.01724c0.45478,0.0758 1.38961,0.17686 1.6928,0.17686h0.25266c2.62763,4.42149 4.26989,5.55844 4.9268,5.55844h2.80449c0.10106,0 0.0758,-0.27792 0,-0.27792zM246.41188,308.67458c-0.17686,0 -1.08642,-0.12633 -1.46541,-0.17686v-5.40685c0.02527,-1.33908 0.27792,-1.46541 1.5412,-1.46541c1.66753,0 3.28453,1.28855 3.28453,3.56245c0,2.4255 -1.66753,3.48666 -3.36033,3.48666z" data-paper-data="{&quot;glyphName&quot;:&quot;R&quot;,&quot;glyphIndex&quot;:1,&quot;word&quot;:1}"></path>
                <path d="M273.80982,301.27175c-3.94144,0 -6.89752,2.90555 -6.92278,6.79645c0,3.58772 2.47603,6.44274 6.29114,6.44274c3.71405,0 6.92278,-2.70342 6.94805,-6.84699c0.02527,-3.61299 -2.4255,-6.3922 -6.31641,-6.3922zM274.06248,313.98036c-3.28453,0 -5.60897,-3.18347 -5.55844,-6.94805c0.05053,-3.25927 1.86966,-5.00259 4.49728,-5.00259c3.20874,0 5.50791,2.85502 5.48264,6.67013c-0.02527,3.18347 -1.74333,5.28052 -4.42149,5.28052z" data-paper-data="{&quot;glyphName&quot;:&quot;O&quot;,&quot;glyphIndex&quot;:2,&quot;word&quot;:1}"></path>
                <path d="M309.1732,301.27175c-0.60638,0 -1.26328,0.05053 -1.97072,0.05053c-0.78323,0 -1.38961,-0.05053 -1.92019,-0.05053c-0.0758,0 -0.0758,0.25266 0,0.25266c1.13695,0 1.64227,0.65691 1.64227,2.02125v8.28713l-7.32703,-9.47461c-0.60638,-0.8085 -0.55584,-1.08642 -0.90956,-1.08642c-0.17686,0 -0.7327,0.05053 -1.16222,0.05053c-0.40425,0 -1.11169,-0.05053 -1.64227,-0.05053c-0.0758,0 -0.0758,0.25266 0,0.25266c0.53058,0 1.08642,0.20213 1.71806,0.8843v9.55041c0,1.36434 -0.58111,1.99598 -1.6928,1.99598c-0.0758,0 -0.0758,0.25266 0,0.25266c0.58111,0 1.23802,-0.05053 1.97072,-0.05053c0.75797,0 1.33908,0.05053 1.89492,0.05053c0.10106,0 0.10106,-0.25266 0,-0.25266c-1.11169,0 -1.64227,-0.63164 -1.64227,-1.99598v-8.91877l8.86824,11.36953c0.05053,0.0758 0.12633,0.10106 0.20213,0.10106c0.12633,0 0.22739,-0.05053 0.22739,-0.12633l0.02527,-10.83896c0,-1.36434 0.58111,-2.02125 1.71806,-2.02125c0.05053,0 0.05053,-0.25266 0,-0.25266z" data-paper-data="{&quot;glyphName&quot;:&quot;N&quot;,&quot;glyphIndex&quot;:3,&quot;word&quot;:1}"></path>
                <path d="M334.74934,301.22122c-0.10106,0.42952 -0.53058,0.53058 -1.36434,0.53058c-1.03589,0 -2.17284,0.05053 -3.94144,0.05053c-1.44014,0 -3.03188,-0.02527 -4.14356,-0.05053c-0.32845,0 -0.90956,-0.02527 -0.90956,-0.42952c0,-0.05053 -0.0758,-0.0758 -0.27792,-0.02527c-0.05053,0.93483 -0.20213,3.10767 -0.30319,3.81511c-0.02527,0.05053 0.0758,0.0758 0.25266,0.02527c0.22739,-1.97072 1.21275,-3.00661 2.88028,-3.00661h0.45478c1.03589,0 1.28855,0.22739 1.26328,1.26328v9.44935c0.02527,1.18748 -0.27792,1.41488 -1.81913,1.41488c-0.05053,0 -0.05053,0.22739 0.02527,0.22739h5.20472c0.0758,0 0.0758,-0.22739 0,-0.22739c-1.56647,0 -1.79386,-0.22739 -1.79386,-1.41488l-0.05053,-9.39881c0.02527,-1.03589 0.15159,-1.31381 1.18748,-1.31381h0.45478c1.81913,0 2.70342,1.03589 2.70342,2.95608c0,0.05053 0.0758,0.0758 0.25266,0.02527c-0.02527,-0.68217 0.10106,-3.05714 0.17686,-3.84038c0,-0.05053 -0.0758,-0.10106 -0.25266,-0.05053z" data-paper-data="{&quot;glyphName&quot;:&quot;T&quot;,&quot;glyphIndex&quot;:4,&quot;word&quot;:1}"></path>
                <path d="M356.43925,306.527c-0.17686,0.35372 -0.40425,0.65691 -0.70744,0.90956c-0.27792,0.27792 -0.60638,0.40425 -0.90956,0.40425c-0.40425,0 -1.16222,-0.35372 -1.51594,-0.53058c-0.42952,-0.17686 -0.78323,-0.32845 -1.06116,-0.42952c-0.30319,-0.0758 -0.58111,-0.12633 -0.83377,-0.12633c-1.06116,0 -1.6928,0.90956 -2.14758,1.76859l0.53058,0.60638c0.25266,-0.45478 0.50531,-0.8085 0.7327,-1.06116c0.22739,-0.22739 0.50531,-0.35372 0.8843,-0.35372c0.22739,0 0.48005,0.05053 0.7327,0.15159c0.25266,0.0758 0.55584,0.22739 0.93483,0.40425c0.40425,0.17686 0.70744,0.30319 0.96009,0.40425c0.25266,0.0758 0.50531,0.12633 0.78323,0.12633c0.83377,0 1.56647,-0.55584 2.14758,-1.66753z" data-paper-data="{&quot;glyphName&quot;:&quot;~&quot;,&quot;glyphIndex&quot;:5,&quot;word&quot;:1}"></path>
                <path d="M380.74173,311.30221c-0.50531,1.6928 -1.66753,2.82975 -3.05714,2.82975h-1.94545c-1.31381,0 -1.56647,-0.22739 -1.56647,-1.38961v-4.87627h3.00661c1.31381,0 1.92019,0.55584 1.92019,1.81913c0,0.05053 0.0758,0.10106 0.15159,0.10106c0.05053,0 0.12633,-0.05053 0.12633,-0.10106c0,-0.78323 -0.05053,-1.36434 -0.05053,-2.04652c0,-0.53058 0.02527,-0.90956 0,-1.79386c0.02527,-0.05053 -0.05053,-0.0758 -0.25266,0c0.02527,1.13695 -0.50531,1.5412 -1.79386,1.5412h-3.10767v-4.37095c0.05053,-1.16222 0.20213,-1.38961 1.59173,-1.38961h1.41488c1.44014,0 2.47603,1.03589 2.67816,2.52656c0.02527,0.05053 0.0758,0.0758 0.27792,0l-0.05053,-2.67816c0,-0.15159 -0.05053,-0.20213 -0.17686,-0.20213h-9.01983c-0.0758,0 -0.0758,0.25266 0.02527,0.25266c1.33908,0 1.59173,0.25266 1.617,1.46541v9.82833c0,1.23802 -0.20213,1.46541 -1.617,1.46541c-0.0758,0 -0.0758,0.25266 0.02527,0.25266h9.55041c0.25266,0 0.35372,-0.0758 0.35372,-0.32845c0,-0.90956 0.05053,-2.09705 0.17686,-2.85502c0.02527,-0.05053 -0.0758,-0.10106 -0.27792,-0.05053z" data-paper-data="{&quot;glyphName&quot;:&quot;E&quot;,&quot;glyphIndex&quot;:6,&quot;word&quot;:1}"></path>
                <path d="M410.04152,301.27175c-0.60638,0 -1.26328,0.05053 -1.97072,0.05053c-0.78323,0 -1.38961,-0.05053 -1.92019,-0.05053c-0.0758,0 -0.0758,0.25266 0,0.25266c1.13695,0 1.64227,0.65691 1.64227,2.02125v8.28713l-7.32703,-9.47461c-0.60638,-0.8085 -0.55584,-1.08642 -0.90956,-1.08642c-0.17686,0 -0.7327,0.05053 -1.16222,0.05053c-0.40425,0 -1.11169,-0.05053 -1.64227,-0.05053c-0.0758,0 -0.0758,0.25266 0,0.25266c0.53058,0 1.08642,0.20213 1.71806,0.8843v9.55041c0,1.36434 -0.58111,1.99598 -1.6928,1.99598c-0.0758,0 -0.0758,0.25266 0,0.25266c0.58111,0 1.23802,-0.05053 1.97072,-0.05053c0.75797,0 1.33908,0.05053 1.89492,0.05053c0.10106,0 0.10106,-0.25266 0,-0.25266c-1.11169,0 -1.64227,-0.63164 -1.64227,-1.99598v-8.91877l8.86824,11.36953c0.05053,0.0758 0.12633,0.10106 0.20213,0.10106c0.12633,0 0.22739,-0.05053 0.22739,-0.12633l0.02527,-10.83896c0,-1.36434 0.58111,-2.02125 1.71806,-2.02125c0.05053,0 0.05053,-0.25266 0,-0.25266z" data-paper-data="{&quot;glyphName&quot;:&quot;N&quot;,&quot;glyphIndex&quot;:7,&quot;word&quot;:1}"></path>
                <path d="M430.16687,301.29702c-0.78323,0 -1.79386,0.10106 -2.65289,0.10106c-0.93483,0 -1.81913,-0.0758 -2.47603,-0.0758c-0.0758,0 -0.0758,0.25266 0,0.25266c1.33908,0 1.59173,0.25266 1.64227,1.46541v9.80306c0.02527,1.23802 -0.25266,1.46541 -1.64227,1.46541c-0.0758,0 -0.0758,0.25266 0,0.25266c0.65691,0 1.5412,-0.05053 2.47603,-0.05053c0.93483,0 2.22338,0.12633 2.95608,0.12633c3.71405,0 6.99858,-2.70342 6.99858,-6.92278c0,-3.68878 -2.95608,-6.41747 -7.30177,-6.41747zM430.26793,314.30882c-1.56647,0 -1.92019,-0.53058 -1.94545,-1.6928v-9.52514c0,-1.16222 0.48005,-1.46541 1.89492,-1.46541c3.58772,0 5.38158,3.18347 5.38158,6.56906c0,3.91617 -2.19811,6.11428 -5.33105,6.11428z" data-paper-data="{&quot;glyphName&quot;:&quot;D&quot;,&quot;glyphIndex&quot;:8,&quot;lastGlyphOfWord&quot;:true,&quot;word&quot;:1}"></path>
            </g>
            <g data-paper-data="{&quot;stacked&quot;:true,&quot;isPrimaryText&quot;:true}">
                <path d="M218.10008,208.38896v0c2.99708,0 5.55811,-1.0932 7.68309,-3.27959c2.12498,-2.1864 3.18747,-4.83955 3.18747,-7.95946v-39.79731c0,-0.54046 -0.19039,-1.00722 -0.57117,-1.40028c-0.38078,-0.39306 -0.82911,-0.58959 -1.345,-0.58959v0c-2.87425,0 -5.33087,1.05635 -7.36987,3.16904c-2.039,2.1127 -3.0585,4.6553 -3.0585,7.62782v40.71854c0,0.41763 0.1474,0.77384 0.44219,1.06863c0.29479,0.29479 0.63872,0.44219 1.03178,0.44219z" data-paper-data="{&quot;glyphName&quot;:&quot;I&quot;,&quot;glyphIndex&quot;:0,&quot;firstGlyphOfWord&quot;:true,&quot;word&quot;:1,&quot;line&quot;:1,&quot;firstGlyphOfFirstLine&quot;:true}" fill="#ffffff"></path>
                <path d="M267.33083,189.81688v0v-0.58959c0,-5.9696 -1.25288,-10.58805 -3.75863,-13.85536c-2.48119,-3.29188 -6.00645,-4.93781 -10.57577,-4.93781c-3.39014,0 -6.15384,1.21603 -8.29111,3.64809v-6.92768c0,-3.16904 -1.11776,-5.87133 -3.35329,-8.10686c-2.23553,-2.23553 -4.93781,-3.35329 -8.10686,-3.35329v0v41.93457c0,2.82512 1.00722,5.23875 3.02165,7.2409c2.01443,2.00215 4.43421,3.00322 7.25932,3.00322v0l0.47904,-3.75863c2.28466,2.94795 5.29402,4.42192 9.02809,4.42192c4.54475,0 8.05773,-1.60909 10.53892,-4.82727c2.50576,-3.24274 3.75863,-7.87348 3.75863,-13.89221zM255.83383,189.0799v0c0,3.16904 -0.18425,5.40457 -0.55274,6.70658c-0.71242,2.62859 -2.41977,3.94288 -5.12206,3.94288c-2.65315,0 -4.47106,-0.97037 -5.45371,-2.9111v-14.59235c1.00722,-1.9653 2.80055,-2.94795 5.38001,-2.94795c1.94073,0 3.39014,0.74927 4.34822,2.24781c0.93352,1.49854 1.40028,4.01658 1.40028,7.55412z" data-paper-data="{&quot;glyphName&quot;:&quot;b&quot;,&quot;glyphIndex&quot;:1,&quot;word&quot;:1,&quot;line&quot;:1}" fill="#ffffff"></path>
                <path d="M288.85085,182.37331v0l0.2211,-10.83371c-0.88438,-0.27023 -1.91617,-0.40534 -3.09535,-0.40534c-3.31644,0 -5.8959,1.83018 -7.73837,5.49055l-0.36849,-4.79042v0c-2.84968,0 -5.28788,1.06249 -7.3146,3.18747c-2.02671,2.12498 -3.04007,4.69829 -3.04007,7.71994v24.13633c0,0.63872 0.21495,1.18532 0.64486,1.6398c0.42991,0.45448 0.93966,0.68171 1.52925,0.68171v0c2.45662,0 4.5509,-0.91509 6.28282,-2.74528c1.73192,-1.83018 2.59788,-4.035 2.59788,-6.61446v-14.29755c0.98265,-2.30923 3.20589,-3.46384 6.66973,-3.46384z" data-paper-data="{&quot;glyphName&quot;:&quot;r&quot;,&quot;glyphIndex&quot;:2,&quot;word&quot;:1,&quot;line&quot;:1}" fill="#ffffff"></path>
                <path d="M319.58322,207.94677l4.86412,-0.0737v-0.55274c-0.95808,-1.7442 -1.46169,-4.27453 -1.51082,-7.59097v-15.95577c-0.04913,-3.90603 -1.38799,-6.9891 -4.01658,-9.24919c-2.60402,-2.23553 -6.16613,-3.35329 -10.68631,-3.35329c-4.52019,0 -8.22969,1.0932 -11.12851,3.27959c-2.92338,2.16183 -4.38507,4.98695 -4.38507,8.47535h11.01796c0,-2.62859 1.31429,-3.94288 3.94288,-3.94288c2.80055,0 4.20083,1.65822 4.20083,4.97466v1.91617h-3.39014c-5.40457,0 -9.5317,0.99493 -12.38139,2.9848c-3.7095,2.62859 -4.98695,6.90311 -3.83233,12.82358c2.75142,4.56932 6.6206,6.85398 11.60755,6.85398c3.6358,0 6.4732,-1.28973 8.5122,-3.86918c1.64594,1.94073 4.04115,3.03393 7.18563,3.27959zM306.53855,200.54005v0c-1.05635,0 -1.91617,-0.30708 -2.57946,-0.92123c-0.68785,-0.63872 -1.03178,-1.47397 -1.03178,-2.50576c0,-3.48841 1.91617,-5.23261 5.7485,-5.23261h3.20589v5.7485c-0.39306,0.76155 -1.03178,1.43713 -1.91617,2.02671c-0.90895,0.58959 -2.05128,0.88438 -3.42699,0.88438z" data-paper-data="{&quot;glyphName&quot;:&quot;a&quot;,&quot;glyphIndex&quot;:3,&quot;word&quot;:1,&quot;line&quot;:1}" fill="#ffffff"></path>
                <path d="M336.97612,172.27659v0v-16.36112v0c-3.04621,0 -5.65024,1.13005 -7.81206,3.39014c-2.16183,2.26009 -3.24274,4.99923 -3.24274,8.21741v41.30813v0c3.04621,0 5.65024,-1.13619 7.81206,-3.40857c2.16183,-2.27238 3.24274,-5.00537 3.24274,-8.19898v-15.14509c0.93352,-1.49854 2.53032,-2.24781 4.79042,-2.24781c1.84247,0 3.14448,0.45448 3.90603,1.36343c0.76155,0.93352 1.14233,2.39521 1.14233,4.38507v23.25195v0c3.04621,0 5.65024,-1.13619 7.81206,-3.40857c2.16183,-2.27238 3.24274,-5.01765 3.24274,-8.23583v-11.90234c-0.04913,-4.74128 -1.06863,-8.32796 -3.0585,-10.76001c-1.98987,-2.45662 -4.92553,-3.68494 -8.807,-3.68494c-2.67772,0 -4.99923,0.82297 -6.96453,2.46891c-0.44219,0.34393 -0.89667,0.3992 -1.36343,0.16582c-0.46676,-0.23338 -0.70014,-0.63258 -0.70014,-1.1976z" data-paper-data="{&quot;glyphName&quot;:&quot;h&quot;,&quot;glyphIndex&quot;:4,&quot;word&quot;:1,&quot;line&quot;:1}" fill="#ffffff"></path>
                <path d="M359.34368,161.55342v0c0,1.6705 0.56502,3.03393 1.69507,4.09028c1.15461,1.05635 2.62859,1.58452 4.42192,1.58452c1.8179,0 3.29188,-0.52817 4.42192,-1.58452c1.13005,-1.05635 1.69507,-2.41977 1.69507,-4.09028c0,-1.6705 -0.56502,-3.03393 -1.69507,-4.09028c-1.13005,-1.05635 -2.60402,-1.58452 -4.42192,-1.58452c-1.79334,0 -3.26731,0.52817 -4.42192,1.58452c-1.13005,1.05635 -1.69507,2.41977 -1.69507,4.09028zM360.00697,208.49951v0c3.04621,0 5.65024,-1.13619 7.81206,-3.40857c2.16183,-2.27238 3.24274,-5.01765 3.24274,-8.23583v-25.64715v0c-3.04621,0 -5.65024,1.13619 -7.81206,3.40857c-2.16183,2.27238 -3.24274,5.01765 -3.24274,8.23583z" data-paper-data="{&quot;glyphName&quot;:&quot;i&quot;,&quot;glyphIndex&quot;:5,&quot;word&quot;:1,&quot;line&quot;:1}" fill="#ffffff"></path>
                <path d="M383.40631,171.57645v0v0c-2.84968,0 -5.28788,1.04407 -7.3146,3.1322c-2.02671,2.08813 -3.04007,4.61845 -3.04007,7.59097v25.9788v0c3.04621,0 5.65024,-1.11776 7.81206,-3.35329c2.16183,-2.23553 3.24274,-4.93781 3.24274,-8.10686v-14.11331c1.10548,-1.98987 2.71457,-2.9848 4.82727,-2.9848c1.64594,0 2.7637,0.42991 3.35329,1.28973c0.58959,0.85982 0.88438,2.24781 0.88438,4.16398v16.72961c0,1.76877 0.60187,3.27345 1.80562,4.51405c1.20375,1.2406 2.65315,1.86089 4.34822,1.86089v0c1.35114,0 2.50576,-0.49747 3.46384,-1.4924c0.95808,-0.99493 1.43713,-2.20482 1.43713,-3.62966v-19.97235l-0.03685,-0.47904c1.08091,-1.98987 2.71457,-2.9848 4.90096,-2.9848c1.59681,0 2.70229,0.42991 3.31644,1.28973c0.61416,0.85982 0.92123,2.22324 0.92123,4.09028v11.7181c0,3.14448 1.08091,5.84062 3.24274,8.08843c2.16183,2.24781 4.76585,3.37172 7.81206,3.37172v0v-23.87839c-0.19653,-9.01581 -3.88147,-13.52372 -11.05481,-13.52372c-3.48841,0 -6.33809,1.0932 -8.54905,3.27959c-0.51589,0.46676 -1.08706,0.67557 -1.7135,0.62644c-0.62644,-0.04913 -1.17304,-0.33164 -1.6398,-0.84754c-1.71964,-2.039 -4.23768,-3.0585 -7.55412,-3.0585c-4.22539,0 -7.59097,1.6705 -10.09672,5.01151z" data-paper-data="{&quot;glyphName&quot;:&quot;m&quot;,&quot;glyphIndex&quot;:6,&quot;lastGlyphOfWord&quot;:true,&quot;word&quot;:1,&quot;line&quot;:1,&quot;lastGlyphOfFirstLine&quot;:true}" fill="#ffffff"></path>
                <path d="M259.55561,262.21803v0v-5.15891c0,-2.55489 -0.89667,-4.729 -2.69,-6.52234c-1.79334,-1.79334 -3.96745,-2.69 -6.52234,-2.69h-11.75495v8.5122h8.62275v7.99631c-1.57224,1.42484 -3.96745,2.13726 -7.18563,2.13726c-3.75863,0 -6.51005,-1.28973 -8.25426,-3.86918c-1.7442,-2.57946 -2.6163,-6.43635 -2.6163,-11.5707v-3.09535c0.02457,-5.01151 0.90895,-8.84385 2.65315,-11.497c2.30923,-2.97252 5.39229,-4.17626 9.24919,-3.61124c1.54767,0.24566 2.82512,0.7984 3.83233,1.65822c1.32658,1.17918 2.22324,3.10763 2.69,5.78535c0,0.12283 0.03685,0.21495 0.11055,0.27637c0.0737,0.06142 0.15968,0.09212 0.25795,0.09212h0.66329c3.43927,0 5.72393,-1.5661 6.85398,-4.69829c1.13005,-3.1322 0.41763,-5.93889 -2.13726,-8.42008v0c-3.53754,-2.94795 -8.48764,-4.42192 -14.85029,-4.42192c-4.37279,0 -8.21741,1.0195 -11.53385,3.0585c-3.31644,2.039 -5.87133,4.9501 -7.66467,8.7333c-1.76877,3.7832 -2.65315,8.20512 -2.65315,13.26577v4.45877c0.29479,7.34531 2.44434,13.08152 6.44864,17.20865c4.02886,4.12713 9.39659,6.19069 16.10317,6.19069c4.34822,0 8.35252,-0.65101 12.01289,-1.95302v0c5.57654,-2.57946 8.3648,-6.53462 8.3648,-11.86549z" data-paper-data="{&quot;glyphName&quot;:&quot;G&quot;,&quot;glyphIndex&quot;:7,&quot;firstGlyphOfWord&quot;:true,&quot;word&quot;:2,&quot;line&quot;:2,&quot;firstGlyphOfSecondLine&quot;:true}" fill="#ffffff"></path>
                <path d="M271.7896,239.51882v0v-16.36112v0c-3.04621,0 -5.65024,1.13005 -7.81206,3.39014c-2.16183,2.26009 -3.24274,4.99923 -3.24274,8.21741v41.30813v0c3.04621,0 5.65024,-1.13619 7.81206,-3.40857c2.16183,-2.27238 3.24274,-5.00537 3.24274,-8.19898v-15.14509c0.93352,-1.49854 2.53032,-2.24781 4.79042,-2.24781c1.84247,0 3.14448,0.45448 3.90603,1.36343c0.76155,0.93352 1.14233,2.39521 1.14233,4.38507v23.25195v0c3.04621,0 5.65024,-1.13619 7.81206,-3.40857c2.16183,-2.27238 3.24274,-5.01765 3.24274,-8.23583v-11.90234c-0.04913,-4.74128 -1.06863,-8.32796 -3.0585,-10.76001c-1.98987,-2.45662 -4.92553,-3.68494 -8.807,-3.68494c-2.67772,0 -4.99923,0.82297 -6.96453,2.46891c-0.44219,0.34393 -0.89667,0.3992 -1.36343,0.16582c-0.46676,-0.23338 -0.70014,-0.63258 -0.70014,-1.1976z" data-paper-data="{&quot;glyphName&quot;:&quot;h&quot;,&quot;glyphIndex&quot;:8,&quot;word&quot;:2,&quot;line&quot;:2}" fill="#ffffff"></path>
                <path d="M323.19446,275.18901l4.86412,-0.0737v-0.55274c-0.95808,-1.7442 -1.46169,-4.27453 -1.51082,-7.59097v-15.95577c-0.04913,-3.90603 -1.38799,-6.9891 -4.01658,-9.24919c-2.60402,-2.23553 -6.16613,-3.35329 -10.68631,-3.35329c-4.52019,0 -8.22969,1.0932 -11.12851,3.27959c-2.92338,2.16183 -4.38507,4.98695 -4.38507,8.47535h11.01796c0,-2.62859 1.31429,-3.94288 3.94288,-3.94288c2.80055,0 4.20083,1.65822 4.20083,4.97466v1.91617h-3.39014c-5.40457,0 -9.5317,0.99493 -12.38139,2.9848c-3.7095,2.62859 -4.98695,6.90311 -3.83233,12.82358c2.75142,4.56932 6.6206,6.85398 11.60755,6.85398c3.6358,0 6.4732,-1.28973 8.5122,-3.86918c1.64594,1.94073 4.04115,3.03393 7.18563,3.27959zM310.14978,267.78228v0c-1.05635,0 -1.91617,-0.30708 -2.57946,-0.92123c-0.68785,-0.63872 -1.03178,-1.47397 -1.03178,-2.50576c0,-3.48841 1.91617,-5.23261 5.7485,-5.23261h3.20589v5.7485c-0.39306,0.76155 -1.03178,1.43713 -1.91617,2.02671c-0.90895,0.58959 -2.05128,0.88438 -3.42699,0.88438z" data-paper-data="{&quot;glyphName&quot;:&quot;a&quot;,&quot;glyphIndex&quot;:9,&quot;word&quot;:2,&quot;line&quot;:2}" fill="#ffffff"></path>
                <path d="M343.609,258.05405v0l-2.43206,-8.62275c-2.99708,-7.54184 -7.98403,-11.31275 -14.96084,-11.31275v0l12.30769,35.70703l-0.88438,2.35836c-0.39306,1.15461 -0.99493,1.95302 -1.80562,2.39521c-0.83525,0.46676 -2.02671,0.70014 -3.57439,0.70014h-1.43713v7.84891c1.59681,0.41763 3.11991,0.62644 4.56932,0.62644c5.18348,0 8.807,-2.28466 10.87056,-6.85398l0.58959,-1.51082l10.53892,-30.14278c0.85982,-2.84968 0.47904,-5.41686 -1.14233,-7.70152c-1.62137,-2.28466 -3.88147,-3.42699 -6.78028,-3.42699v0z" data-paper-data="{&quot;glyphName&quot;:&quot;y&quot;,&quot;glyphIndex&quot;:10,&quot;word&quot;:2,&quot;line&quot;:2}" fill="#ffffff"></path>
                <path d="M394.24003,257.05912v0v-0.58959c0,-5.9696 -1.25288,-10.58805 -3.75863,-13.85536c-2.48119,-3.29188 -6.00645,-4.93781 -10.57577,-4.93781c-3.39014,0 -6.15384,1.21603 -8.29111,3.64809v-6.92768c0,-3.16904 -1.11776,-5.87133 -3.35329,-8.10686c-2.23553,-2.23553 -4.93781,-3.35329 -8.10686,-3.35329v0v41.93457c0,2.82512 1.00722,5.23875 3.02165,7.2409c2.01443,2.00215 4.43421,3.00322 7.25932,3.00322v0l0.47904,-3.75863c2.28466,2.94795 5.29402,4.42192 9.02809,4.42192c4.54475,0 8.05773,-1.60909 10.53892,-4.82727c2.50576,-3.24274 3.75863,-7.87348 3.75863,-13.89221zM382.74302,256.32213v0c0,3.16904 -0.18425,5.40457 -0.55274,6.70658c-0.71242,2.62859 -2.41977,3.94288 -5.12206,3.94288c-2.65315,0 -4.47106,-0.97037 -5.45371,-2.9111v-14.59235c1.00722,-1.9653 2.80055,-2.94795 5.38001,-2.94795c1.94073,0 3.39014,0.74927 4.34822,2.24781c0.93352,1.49854 1.40028,4.01658 1.40028,7.55412z" data-paper-data="{&quot;glyphName&quot;:&quot;b&quot;,&quot;glyphIndex&quot;:11,&quot;word&quot;:2,&quot;line&quot;:2}" fill="#ffffff"></path>
                <path d="M394.42427,256.50638v0l0.03685,1.91617c0.24566,5.33087 1.8916,9.55627 4.93781,12.67618c3.04621,3.11991 7.08736,4.67987 12.12344,4.67987c5.23261,0 9.3843,-1.6705 12.45508,-5.01151c3.07078,-3.34101 4.60617,-7.8612 4.60617,-13.56056v-0.40534c0,-5.84677 -1.52311,-10.46522 -4.56932,-13.85536c-3.07078,-3.39014 -7.24704,-5.08521 -12.52878,-5.08521c-3.48841,0 -6.51005,0.77384 -9.06494,2.32151c-2.57946,1.52311 -4.55704,3.7095 -5.93275,6.55919c-1.37571,2.84968 -2.06356,6.10471 -2.06356,9.76508zM405.44223,257.20652v0l0.03685,-2.06356c0.31936,-5.65024 2.32151,-8.47535 6.00645,-8.47535c4.05343,0 6.08014,3.27959 6.08014,9.83878v1.14233c-0.09826,6.23983 -2.1127,9.35974 -6.0433,9.35974c-1.98987,0 -3.50069,-0.78612 -4.53247,-2.35836c-1.03178,-1.59681 -1.54767,-4.078 -1.54767,-7.44357z" data-paper-data="{&quot;glyphName&quot;:&quot;o&quot;,&quot;glyphIndex&quot;:12,&quot;word&quot;:2,&quot;line&quot;:2}" fill="#ffffff"></path>
                <path d="M451.31968,271.09873v0l0.33164,4.01658v0c2.84968,0 5.28174,-1.05635 7.29617,-3.16904c2.01443,-2.1127 3.02165,-4.6553 3.02165,-7.62782v-14.6292c0,-3.19361 -1.08091,-5.92046 -3.24274,-8.18056c-2.16183,-2.26009 -4.77813,-3.39014 -7.84891,-3.39014v0v25.94195c-1.05635,1.8916 -2.84968,2.8374 -5.38001,2.8374c-2.94795,0 -4.42192,-1.58452 -4.42192,-4.75357v-12.49193c0,-3.19361 -1.07477,-5.91432 -3.22432,-8.16213c-2.14955,-2.24781 -4.74743,-3.37172 -7.79364,-3.37172v0v23.95208c0,4.42192 0.99493,7.81206 2.9848,10.17042c1.98987,2.35836 4.92553,3.53754 8.807,3.53754c3.97973,0 7.13649,-1.55996 9.47029,-4.67987z" data-paper-data="{&quot;glyphName&quot;:&quot;u&quot;,&quot;glyphIndex&quot;:13,&quot;word&quot;:2,&quot;line&quot;:2}" fill="#ffffff"></path>
                <path d="M484.7789,249.61555v0l0.2211,-10.83371c-0.88438,-0.27023 -1.91617,-0.40534 -3.09535,-0.40534c-3.31644,0 -5.8959,1.83018 -7.73837,5.49055l-0.36849,-4.79042v0c-2.84968,0 -5.28788,1.06249 -7.3146,3.18747c-2.02671,2.12498 -3.04007,4.69829 -3.04007,7.71994v24.13633c0,0.63872 0.21495,1.18532 0.64486,1.6398c0.42991,0.45448 0.93966,0.68171 1.52925,0.68171v0c2.45662,0 4.5509,-0.91509 6.28282,-2.74528c1.73192,-1.83018 2.59788,-4.035 2.59788,-6.61446v-14.29755c0.98265,-2.30923 3.20589,-3.46384 6.66973,-3.46384z" data-paper-data="{&quot;glyphName&quot;:&quot;r&quot;,&quot;glyphIndex&quot;:14,&quot;lastGlyphOfWord&quot;:true,&quot;word&quot;:2,&quot;line&quot;:2,&quot;lastGlyphOfSecondLine&quot;:true}" fill="#ffffff"></path>
                <path d="M218.86589,287.75464c-1.237,0 -2.23978,-1.00279 -2.23978,-2.23978v0c0,-1.237 1.00279,-2.23978 2.23978,-2.23978h103.89317c1.237,0 2.23978,1.00279 2.23978,2.23978v0c0,1.237 -1.00279,2.23978 -2.23978,2.23978zM352.96774,287.75464c-1.237,0 -2.23978,-1.00279 -2.23978,-2.23978v0c0,-1.237 1.00279,-2.23978 2.23978,-2.23978h129.79248c1.237,0 2.23978,1.00279 2.23978,2.23978v0c0,1.237 -1.00279,2.23978 -2.23978,2.23978z" data-paper-data="{&quot;isStackedPrimarySeparatorLines&quot;:true,&quot;isRounded&quot;:true,&quot;isStackedPrimarySeparatorLine2&quot;:true}"></path>
            </g>
            <g data-paper-data="{&quot;isIcon&quot;:&quot;true&quot;,&quot;iconType&quot;:&quot;icon&quot;,&quot;rawIconId&quot;:&quot;43ac1680-0404-4710-a1fd-19c6796cee41&quot;,&quot;selectedEffects&quot;:{&quot;container&quot;:&quot;&quot;,&quot;transformation&quot;:&quot;&quot;,&quot;pattern&quot;:&quot;&quot;},&quot;combineTerms&quot;:&quot;undefined&quot;,&quot;isDetailed&quot;:false,&quot;fillRule&quot;:&quot;nonzero&quot;,&quot;bounds&quot;:{&quot;x&quot;:64.99999999999999,&quot;y&quot;:135.71887130750756,&quot;width&quot;:116.85207068640871,&quot;height&quot;:198.56225738498486},&quot;iconStyle&quot;:&quot;standalone&quot;,&quot;suitableAsStandaloneIcon&quot;:true}">
                <path d="M181.50709,331.02713c0.05254,0.23643 0.09983,0.46935 0.15411,0.70578c0.03853,-1.43958 0.0683,-2.88791 0.08581,-4.34325l0.01926,-2.18739c-0.01226,-0.7268 -0.04554,-1.45184 -0.06831,-2.18038l-0.18914,-4.39055c-0.12259,-1.45534 -0.27145,-2.91068 -0.4098,-4.38004c-0.64974,-5.83538 -1.7373,-11.68827 -3.43608,-17.27847c-0.43082,-1.38879 -0.92995,-2.73205 -1.3993,-4.10858c-0.12084,-0.33976 -0.23468,-0.69001 -0.36427,-1.02452l-0.40631,-0.98424l-0.82136,-1.97373c-0.52189,-1.35377 -1.16988,-2.55867 -1.7916,-3.81086c-0.31348,-0.61996 -0.62172,-1.25219 -0.94571,-1.8634l-1.01927,-1.76182l-1.02802,-1.76533c-0.34325,-0.58844 -0.72504,-1.10683 -1.09107,-1.66024c-0.74255,-1.07881 -1.46585,-2.21891 -2.25744,-3.2014l-1.16988,-1.52539c-0.38879,-0.51139 -0.78108,-1.02276 -1.18914,-1.48161c-0.80735,-0.94396 -1.62172,-1.89492 -2.44833,-2.80034c-3.31524,-3.60246 -6.80385,-6.63923 -10.30648,-9.42557c-3.50963,-2.76883 -7.05604,-5.27145 -10.57618,-7.60071c-7.04904,-4.68477 -14.00877,-8.92119 -20.72855,-13.52715c-3.35377,-2.31173 -6.67251,-4.6655 -9.88791,-7.22417c-1.63573,-1.21891 -3.19264,-2.60596 -4.7951,-3.89668c-0.79159,-0.6655 -1.56042,-1.37653 -2.34326,-2.06305c-0.77759,-0.69528 -1.57093,-1.35902 -2.324,-2.10333l-2.29247,-2.17338c-0.76708,-0.71804 -1.46935,-1.49387 -2.21016,-2.23818c-1.49562,-1.4641 -2.8564,-3.09982 -4.27496,-4.67776c-2.72504,-3.28546 -5.28547,-6.7986 -7.53766,-10.63573c-4.52365,-7.63573 -7.63924,-16.81437 -8.29949,-27.13136l-0.11033,-1.9387c-0.01926,-0.64974 -0.01751,-1.29947 -0.02802,-1.95622l-0.0105,-0.98599l0.02977,-0.98424c0.02802,-0.65674 0.02102,-1.32399 0.0613,-1.98599c0.11909,-2.65849 0.42907,-5.31874 0.81962,-7.9965c0.41331,-2.66725 0.94571,-5.33801 1.61997,-7.95973c0.66901,-2.62872 1.44484,-5.22767 2.38705,-7.75306c-1.49738,1.85464 -2.8021,4.05604 -4.02452,6.36953c-1.20315,2.33625 -2.29246,4.84063 -3.22242,7.50613c-0.94046,2.65849 -1.7303,5.47111 -2.35377,8.40455c-0.16462,0.7303 -0.28546,1.47811 -0.42206,2.22592l-0.1979,1.12435l-0.15587,1.1401c-0.09983,0.76357 -0.21016,1.52714 -0.29772,2.29947l-0.20491,2.33275c-0.48512,6.25569 -0.04378,12.76008 1.12784,18.92645l0.21191,1.16463l0.2627,1.13135c0.17337,0.75656 0.35201,1.51313 0.5394,2.2662c0.16988,0.76708 0.40455,1.47811 0.61821,2.21016l0.65849,2.18739c0.20665,0.74606 0.48512,1.41332 0.72854,2.12259l0.76008,2.10157c0.24343,0.71628 0.5394,1.36252 0.82136,2.03153l0.86164,1.993c2.36078,5.23642 5.14886,9.90368 8.11209,14.1944c1.52714,2.03328 3.02627,4.17163 4.64273,6.00351c0.7986,0.9352 1.58844,1.9317 2.39579,2.81436l2.43608,2.62346c0.80735,0.89142 1.63923,1.71279 2.47636,2.5289c0.83713,0.81436 1.6655,1.65674 2.51139,2.44484c1.70053,1.54816 3.40105,3.12084 5.14011,4.54291c0.8669,0.72155 1.73205,1.46235 2.60946,2.14185l2.63398,2.04203c0.87566,0.69702 1.77058,1.29247 2.655,1.94396c0.88792,0.63398 1.77408,1.28722 2.6655,1.88266c7.13135,4.90193 14.37128,8.95798 21.40982,12.94221c3.52715,1.99475 6.98424,3.98424 10.35553,6.10683c3.36603,2.12259 6.65149,4.35727 9.75131,6.91068c0.77233,0.64098 1.51488,1.33275 2.28897,1.97899c0.39054,0.31699 0.75482,0.67601 1.1191,1.03328l1.10157,1.0683c0.75656,0.68476 1.42382,1.49738 2.13309,2.2627c0.34501,0.39405 0.71278,0.76182 1.04903,1.16812l1.0035,1.23993l1.01226,1.24344c0.32225,0.43608 0.62873,0.89317 0.94571,1.33975c0.62873,0.90017 1.28196,1.78108 1.8564,2.76357l0.89492,1.44308l0.45184,0.72504c0.14536,0.24694 0.27496,0.51313 0.41331,0.76882c0.54115,1.03677 1.10332,2.06305 1.64448,3.12259l1.52539,3.30473c0.30123,0.67426 0.57268,1.37829 0.84414,2.08406c-0.24343,-0.49913 -0.47111,-1.01226 -0.72505,-1.50087c-2.2557,-4.26095 -4.96322,-8.08407 -7.95622,-11.27671c-2.993,-3.1909 -6.23818,-5.77059 -9.54291,-7.89667c-6.63223,-4.22067 -13.4466,-6.69878 -20.07181,-8.78109c-6.63923,-2.0648 -13.14711,-3.71453 -19.48162,-5.68652c-6.3345,-1.96322 -12.50263,-4.22592 -18.44834,-7.24344c-0.74782,-0.36077 -1.48161,-0.77058 -2.22242,-1.15411c-0.7268,-0.41681 -1.47986,-0.8091 -2.18739,-1.23292c-1.44659,-0.81436 -2.84414,-1.73381 -4.23469,-2.66726c-2.75307,-1.91768 -5.40456,-4.05955 -7.81437,-6.58319c-2.41156,-2.52014 -4.61121,-5.37304 -6.45359,-8.67601c-0.92469,-1.64799 -1.74606,-3.41331 -2.47636,-5.28371c-0.74606,-1.86165 -1.35201,-3.85814 -1.85464,-5.94396c-2.02803,-8.35728 -2.09107,-18.34502 -0.37303,-28.15413c-1.10508,1.96322 -1.99124,4.19789 -2.7916,6.51489c-0.77583,2.33275 -1.43783,4.78809 -1.9317,7.35027c-0.51488,2.55692 -0.84063,5.22242 -1.02977,7.94921c-0.17163,2.72855 -0.15236,5.51489 0.03152,8.31524c0.22242,2.78634 0.6077,5.58494 1.19615,8.30474c0.5937,2.71279 1.35902,5.36778 2.29772,7.86515c1.87041,5.01051 4.32924,9.4641 7.08056,13.27145c5.50964,7.64273 12.08057,12.88267 18.58845,16.84589c6.56392,4.01226 13.36779,6.76358 20.1086,8.82838c6.74781,2.0683 13.44834,3.42207 19.96674,4.7846c6.51489,1.37829 12.86516,2.74781 18.85114,5.14712c2.98599,1.21366 5.87391,2.70579 8.62872,4.60771c2.7408,1.92645 5.36077,4.25744 7.77408,7.14361c2.41506,2.87741 4.64448,6.2662 6.66024,10.07356c2.03153,3.7951 3.81261,8.00701 5.54991,12.39931c-0.09457,-1.08582 -0.21366,-2.16988 -0.34501,-3.25394zM105.19183,143.99207c1.99475,1.90369 3.3205,4.12435 3.97723,6.662c0.65499,2.5394 0.98424,8.88441 0.98424,19.03678v58.10684c0.54816,0.45009 1.09107,0.91243 1.65324,1.331c3.3958,2.70053 6.8599,5.13485 9.80911,7.16638c3.80736,2.61121 7.62872,5.05955 11.67426,7.65324c1.98599,1.27321 3.98775,2.56393 5.99474,3.87216v-78.12962c0,-9.95797 0.3275,-16.10859 0.98249,-18.45184c0.89317,-3.31699 2.11383,-5.66025 3.66375,-7.02802c2.14536,-2.05079 4.97374,-3.0753 8.48863,-3.0753h4.02101v-5.41682h-63.35378v5.41857h4.02101c3.3923,0 6.08757,0.95096 8.08407,2.85465zM144.33019,326.00965c-1.9965,-1.90369 -3.338,-4.12259 -4.02101,-6.66375c-0.68476,-2.53766 -1.02627,-8.88092 -1.02627,-19.03679v-1.63923c-1.81961,-0.41331 -3.63923,-0.8091 -5.43958,-1.19089l-1.25394,-0.26094c-6.15061,-1.28371 -12.51139,-2.60946 -18.93696,-4.58144c-1.19264,-0.36603 -2.35377,-0.74956 -3.49912,-1.14186v8.81262c0,9.95797 -0.32925,16.10859 -0.98424,18.4501c-0.83538,3.32049 -2.02627,5.66375 -3.57443,7.02978c-2.14361,2.04903 -4.97374,3.07531 -8.48863,3.07531h-4.02101v5.41857h63.35378v-5.41857h-4.02101c-3.39755,0.00175 -6.09282,-0.95096 -8.08757,-2.85288z" data-paper-data="{&quot;isPathIcon&quot;:true}"></path>
            </g>
        </g>
    </g>
    <g class="watermark-group" style="opacity:0.040000010281801224">
        <path class="watermark-path" d="M129.52,370.3a11.88,11.88,0,0,1,2.58,5.58,12,12,0,0,1,.11,3,11.81,11.81,0,0,1-.64,2.93,12.34,12.34,0,0,1-1.41,2.72,11.65,11.65,0,0,1-2.13,2.32,12,12,0,0,1-2.64,1.69,13,13,0,0,1-2.91.9,12.47,12.47,0,0,1-3,.12,12.17,12.17,0,0,1-2.93-.64,11.8,11.8,0,0,1-2.72-1.38,12.19,12.19,0,0,1-4-4.79,11.85,11.85,0,0,1-.89-2.92,12.14,12.14,0,0,1-.13-3,11.54,11.54,0,0,1,.64-2.92,11.67,11.67,0,0,1,3.5-5,11.44,11.44,0,0,1,2.67-1.69,11.64,11.64,0,0,1,2.92-.91,10.71,10.71,0,0,1,3-.12,11.68,11.68,0,0,1,5.66,2,11.7,11.7,0,0,1,2.34,2.12m-1.4,8.76a13,13,0,0,1-1.22,2.32,9.68,9.68,0,0,1-1.81,2,7.44,7.44,0,0,1-2.38,1.37,6.17,6.17,0,0,1-5.11-.46,8.73,8.73,0,0,1-3.85-4.58,6.69,6.69,0,0,1-.34-2.66,6.09,6.09,0,0,1,.77-2.47,7.15,7.15,0,0,1,1.75-2.11,9.58,9.58,0,0,1,1.09-.81,8.23,8.23,0,0,1,1.12-.63,8.14,8.14,0,0,1,1.19-.46,12.71,12.71,0,0,1,1.32-.37l2,2.38a12.83,12.83,0,0,0-1.56.17,7.86,7.86,0,0,0-1.23.32,4.5,4.5,0,0,0-1,.49,6.41,6.41,0,0,0-.93.67,4.49,4.49,0,0,0-1.15,1.39,3.87,3.87,0,0,0-.45,1.58,4.12,4.12,0,0,0,.26,1.63,6.11,6.11,0,0,0,2.36,2.82,4.43,4.43,0,0,0,1.57.53,3.91,3.91,0,0,0,1.62-.17,4.71,4.71,0,0,0,1.57-.89,10.5,10.5,0,0,0,.83-.79,5.71,5.71,0,0,0,.65-.93,10.13,10.13,0,0,0,.54-1.14,12.24,12.24,0,0,0,.44-1.49l2,2.33m-14.46,4.55a8.86,8.86,0,0,0,2.78,2.22,9,9,0,0,0,3.29.94,9.15,9.15,0,0,0,3.39-.37,8.68,8.68,0,0,0,3.11-1.69,8.8,8.8,0,0,0,2.22-2.78,9.15,9.15,0,0,0,1-3.29,8.95,8.95,0,0,0-4.83-8.76,9,9,0,0,0-6.73-.57,9,9,0,0,0-5.33,4.47,8.94,8.94,0,0,0-.57,6.71,8.76,8.76,0,0,0,1.7,3.12"></path>
        <path class="watermark-path" d="M147,349c-.48.12-1.09.31-1.82.57a24.37,24.37,0,0,0-2.4,1A28.35,28.35,0,0,0,140,352a20.72,20.72,0,0,0-2.71,1.94c-.7.59-1.28,1.11-1.74,1.57a15.07,15.07,0,0,0-1.1,1.22,4.09,4.09,0,0,0-.59.92,2.32,2.32,0,0,0-.22.64,1.16,1.16,0,0,0,0,.47,1.83,1.83,0,0,0,.18.29,1.15,1.15,0,0,0,1,.37,5.54,5.54,0,0,0,1.51-.38q.87-.35,1.95-.9l2.26-1.18q1.2-.65,2.49-1.29c.87-.44,1.73-.83,2.59-1.17a18.94,18.94,0,0,1,2.6-.81,9.27,9.27,0,0,1,2.46-.29,6.25,6.25,0,0,1,2.24.49,5.12,5.12,0,0,1,1.89,1.47,6.35,6.35,0,0,1,1.41,2.61,6,6,0,0,1,.09,2.6,8.3,8.3,0,0,1-.9,2.52,17.79,17.79,0,0,1-1.62,2.37,23.92,23.92,0,0,1-2,2.15c-.72.67-1.41,1.29-2.09,1.87a33.79,33.79,0,0,1-5.33,3.7,32.29,32.29,0,0,1-4.91,2.28l-3.61-4.3a21.38,21.38,0,0,0,5.39-1.87,27.2,27.2,0,0,0,5.4-3.56,21.59,21.59,0,0,0,2.38-2.27,8.67,8.67,0,0,0,1.18-1.7,2.32,2.32,0,0,0,.27-1.19,1.34,1.34,0,0,0-.28-.74,1.21,1.21,0,0,0-1-.42,4.32,4.32,0,0,0-1.55.34,15.77,15.77,0,0,0-2,.88c-.72.37-1.48.77-2.27,1.21l-2.45,1.3c-.85.45-1.7.85-2.56,1.21a22.37,22.37,0,0,1-2.54.86,10,10,0,0,1-2.43.32,5.76,5.76,0,0,1-2.2-.45,5,5,0,0,1-1.89-1.45,6.12,6.12,0,0,1-1.31-2.41,6,6,0,0,1-.1-2.41,8.28,8.28,0,0,1,.81-2.38,14.06,14.06,0,0,1,1.49-2.24,22.37,22.37,0,0,1,1.85-2.05q1-1,2-1.77c.7-.59,1.44-1.15,2.23-1.7s1.62-1.06,2.44-1.53,1.63-.91,2.43-1.3,1.58-.75,2.3-1L147,349"></path>
        <path class="watermark-path" d="M186.76,337.57l-10.6-12.63,3.92,18.24-4.66,3.91-17.27-7,10.6,12.63-4.86,4.07-15.09-18,6.59-5.54,18.69,7.52-4.15-19.71,6.57-5.52,15.09,18-4.83,4.05"></path>
        <path class="watermark-path" d="M208.84,313.24l-10,8.42,1.16,4.82L194.56,331l-5.68-25.89,5.42-4.55,24.51,10.09-5.42,4.55-4.55-2m-11.23,3.45,6.57-5.52-8.83-3.87,2.26,9.39"></path>
        <path class="watermark-path" d="M227.49,281.38c-.48.12-1.09.31-1.82.57a24.37,24.37,0,0,0-2.4,1,26.11,26.11,0,0,0-2.7,1.47,20.72,20.72,0,0,0-2.71,1.94c-.7.59-1.28,1.11-1.74,1.57a13.39,13.39,0,0,0-1.1,1.22,4.29,4.29,0,0,0-.59.91,2.48,2.48,0,0,0-.22.65,1.16,1.16,0,0,0,0,.47,1.83,1.83,0,0,0,.18.29,1.15,1.15,0,0,0,1,.37,5.54,5.54,0,0,0,1.51-.38q.87-.34,2-.9l2.26-1.18q1.2-.64,2.49-1.29c.87-.44,1.73-.83,2.59-1.17a18.94,18.94,0,0,1,2.6-.81,9.27,9.27,0,0,1,2.46-.29,6.08,6.08,0,0,1,2.24.49,5.09,5.09,0,0,1,1.89,1.46,6.47,6.47,0,0,1,1.41,2.61,6.07,6.07,0,0,1,.09,2.61,8.3,8.3,0,0,1-.9,2.52,16.32,16.32,0,0,1-1.63,2.36,21.41,21.41,0,0,1-2,2.16c-.72.67-1.41,1.29-2.1,1.86a33.36,33.36,0,0,1-5.32,3.71,31.92,31.92,0,0,1-4.92,2.28l-3.6-4.3a21.38,21.38,0,0,0,5.39-1.87,27.2,27.2,0,0,0,5.4-3.56,21.59,21.59,0,0,0,2.38-2.27,8.67,8.67,0,0,0,1.18-1.7A2.32,2.32,0,0,0,231,293a1.34,1.34,0,0,0-.28-.74,1.21,1.21,0,0,0-1-.42,4.32,4.32,0,0,0-1.55.34,16.54,16.54,0,0,0-2,.88c-.71.37-1.47.77-2.26,1.21l-2.46,1.3c-.84.44-1.7.85-2.55,1.21a24.53,24.53,0,0,1-2.54.86A10,10,0,0,1,214,298a5.76,5.76,0,0,1-2.2-.45,5,5,0,0,1-1.89-1.45,6.12,6.12,0,0,1-1.31-2.41,5.78,5.78,0,0,1-.1-2.41,8,8,0,0,1,.81-2.38,14.61,14.61,0,0,1,1.49-2.25,22.26,22.26,0,0,1,1.85-2q1-1,2-1.77c.7-.59,1.44-1.15,2.23-1.7s1.62-1.06,2.44-1.53,1.63-.91,2.43-1.31,1.58-.74,2.3-1l3.5,4.16"></path>
        <path class="watermark-path" d="M261.64,274.74l-6.29-7.5L243,277.61l6.3,7.5-4.86,4.07-15.09-18,4.85-4.08,5.49,6.55L252,263.3l-5.49-6.55,4.86-4.07,15.09,18-4.86,4.08"></path>
        <path class="watermark-path" d="M272.18,265.9l-15.09-18,4.86-4.08,15.09,18-4.86,4.08"></path>
        <path class="watermark-path" d="M299.65,242.85l-22.51-2.18L287.51,253l-4.85,4.08-15.1-18,5.28-4.43,22.56,2.22L285,224.5l4.83-4.06,15.09,18-5.26,4.42"></path>
        <path class="watermark-path" d="M306.68,205.52a31.88,31.88,0,0,1,5.29-3.66,34.48,34.48,0,0,1,5.14-2.35l3.69,4.39a20.77,20.77,0,0,0-2.37.61,20.47,20.47,0,0,0-2.61,1,25.12,25.12,0,0,0-2.76,1.49,23.9,23.9,0,0,0-2.8,2,20.42,20.42,0,0,0-2.8,2.77,12.77,12.77,0,0,0-1.64,2.52,7,7,0,0,0-.68,2.24,6,6,0,0,0,.66,3.64,8.16,8.16,0,0,0,.94,1.38,9.12,9.12,0,0,0,1.08,1.07,6.39,6.39,0,0,0,1.47.91,6.73,6.73,0,0,0,1.88.48,6.54,6.54,0,0,0,2.28-.18,11.67,11.67,0,0,0,2.74-1.07,19.38,19.38,0,0,0,3.18-2.22c.57-.48,1.06-.92,1.46-1.31a14.57,14.57,0,0,0,1-1.13,11.46,11.46,0,0,0,.81-1.05l.74-1.09-1.82-2.17-5.45,4.57-3.31-3.94,10.31-8.65,7.71,9.19a29,29,0,0,1-1.67,2.43q-1,1.26-2.1,2.52c-.74.84-1.5,1.65-2.3,2.44s-1.58,1.5-2.33,2.14a31,31,0,0,1-3.59,2.61,22.55,22.55,0,0,1-3.64,1.83,15.64,15.64,0,0,1-3.63.89,10.72,10.72,0,0,1-3.49-.15,10.45,10.45,0,0,1-3.28-1.33,12.54,12.54,0,0,1-3-2.67,12,12,0,0,1-2.08-3.44,10.45,10.45,0,0,1-.71-3.5,11.14,11.14,0,0,1,.51-3.51,15.72,15.72,0,0,1,1.56-3.43,21.62,21.62,0,0,1,2.42-3.28,30.3,30.3,0,0,1,3.15-3"></path>
        <path class="watermark-path" d="M336.91,211.59l-15.1-18,4.86-4.08,11.79,14,13.13-11,3.31,3.94-18,15.1"></path>
        <path class="watermark-path" d="M374.54,164.71a12.28,12.28,0,0,1,2.59,4.81,10.44,10.44,0,0,1,0,5,14.62,14.62,0,0,1-2.33,5,25.55,25.55,0,0,1-4.56,4.85,26.07,26.07,0,0,1-5.6,3.67,14.79,14.79,0,0,1-5.38,1.43,10.43,10.43,0,0,1-4.94-.89,13.24,13.24,0,0,1-6.87-8.18,10.48,10.48,0,0,1,0-5,14.51,14.51,0,0,1,2.36-5,25.23,25.23,0,0,1,4.57-4.89,25,25,0,0,1,5.59-3.64,14.45,14.45,0,0,1,5.35-1.43,10.31,10.31,0,0,1,4.93.92,12.22,12.22,0,0,1,4.28,3.38m-4.91,4.11a8.36,8.36,0,0,0-2-1.72,5.5,5.5,0,0,0-2.65-.85,7.72,7.72,0,0,0-3.32.57,14.49,14.49,0,0,0-4,2.52,16.72,16.72,0,0,0-2.38,2.4,10.15,10.15,0,0,0-1.39,2.24,6.71,6.71,0,0,0-.56,2.1,5.69,5.69,0,0,0,.1,1.9,6.21,6.21,0,0,0,.61,1.69,9.85,9.85,0,0,0,1,1.44,10.48,10.48,0,0,0,1.26,1.23,6.67,6.67,0,0,0,1.57.92,6.1,6.1,0,0,0,1.85.41,6.8,6.8,0,0,0,2.15-.2,11.06,11.06,0,0,0,2.45-1,17.67,17.67,0,0,0,2.77-1.94,14.39,14.39,0,0,0,3.18-3.52,7.74,7.74,0,0,0,1.14-3.17,5.54,5.54,0,0,0-.37-2.74,8.52,8.52,0,0,0-1.36-2.3"></path>
        <path class="watermark-path" d="M382.66,141.76A32.3,32.3,0,0,1,388,138.1a34.12,34.12,0,0,1,5.15-2.35l3.69,4.4a19.62,19.62,0,0,0-2.37.6,22.08,22.08,0,0,0-2.61,1,26,26,0,0,0-2.77,1.49,23.9,23.9,0,0,0-2.8,2,21,21,0,0,0-2.8,2.78,13.19,13.19,0,0,0-1.64,2.51,7.29,7.29,0,0,0-.68,2.24,6.36,6.36,0,0,0,.06,2,5.8,5.8,0,0,0,.61,1.68,8.12,8.12,0,0,0,.93,1.38,9.16,9.16,0,0,0,1.08,1.08,6.56,6.56,0,0,0,1.48.9,6,6,0,0,0,1.87.48,6.76,6.76,0,0,0,2.28-.17,12,12,0,0,0,2.74-1.08,18.57,18.57,0,0,0,3.18-2.22c.58-.48,1.06-.92,1.46-1.31s.75-.77,1.05-1.12.57-.72.81-1.06l.73-1.09-1.82-2.17-5.45,4.57-3.3-3.94,10.3-8.65,7.71,9.19a29,29,0,0,1-1.67,2.43q-1,1.26-2.1,2.52c-.73.84-1.5,1.66-2.3,2.44s-1.57,1.5-2.33,2.14a31,31,0,0,1-3.59,2.61,22.15,22.15,0,0,1-3.64,1.83,15.56,15.56,0,0,1-3.62.89,11,11,0,0,1-3.49-.14,10.84,10.84,0,0,1-3.28-1.33,12.82,12.82,0,0,1-3-2.68,12.12,12.12,0,0,1-2.08-3.43A10.71,10.71,0,0,1,375,155a11.18,11.18,0,0,1,.51-3.51,15.51,15.51,0,0,1,1.57-3.43,21.44,21.44,0,0,1,2.42-3.28,30.19,30.19,0,0,1,3.14-3"></path>
        <path class="watermark-path" d="M428.63,119.31a12.26,12.26,0,0,1,2.59,4.82,10.44,10.44,0,0,1,0,5,14.53,14.53,0,0,1-2.34,5,25.29,25.29,0,0,1-4.56,4.86,26,26,0,0,1-5.59,3.67,14.84,14.84,0,0,1-5.38,1.43,10.61,10.61,0,0,1-4.95-.89,12.15,12.15,0,0,1-4.3-3.37,12,12,0,0,1-2.56-4.81,10.48,10.48,0,0,1,0-5,14.39,14.39,0,0,1,2.35-5,27.89,27.89,0,0,1,10.16-8.53,14.49,14.49,0,0,1,5.36-1.43,10.27,10.27,0,0,1,4.92.92,12.21,12.21,0,0,1,4.28,3.37m-4.91,4.12a8.17,8.17,0,0,0-2-1.72,5.58,5.58,0,0,0-2.65-.86,7.86,7.86,0,0,0-3.31.58,14.49,14.49,0,0,0-4,2.52,16.21,16.21,0,0,0-2.38,2.4,9.85,9.85,0,0,0-1.4,2.24,7,7,0,0,0-.56,2.1,6,6,0,0,0,.1,1.9,6.23,6.23,0,0,0,.62,1.69,8.49,8.49,0,0,0,1,1.44,9.18,9.18,0,0,0,1.26,1.23,6.67,6.67,0,0,0,1.57.92,6,6,0,0,0,1.84.41,6.86,6.86,0,0,0,2.16-.2,11.26,11.26,0,0,0,2.45-1,17.62,17.62,0,0,0,2.76-1.94,14.67,14.67,0,0,0,3.19-3.52,7.71,7.71,0,0,0,1.13-3.17,5.53,5.53,0,0,0-.36-2.74,8.55,8.55,0,0,0-1.37-2.3"></path>
    </g>
</svg>